<?xml version="1.0" encoding="UTF-8"?>
<svg version="1.1" xmlns="http://www.w3.org/2000/svg" width="488" height="511">
<path d="M0 0 C0.03738281 0.70640625 0.07476562 1.4128125 0.11328125 2.140625 C0.66479101 10.74850277 1.85503431 19.17481642 3.18359375 27.69140625 C3.86500259 32.06223768 4.48043757 36.43934926 5.07836914 40.82226562 C6.53108368 51.40110867 8.40668877 61.85773723 10.47949219 72.33105469 C11.01656168 75.08492132 11.53084068 77.84223389 12.0390625 80.6015625 C14.20001792 92.34778363 14.20001792 92.34778363 17.1640625 103.91015625 C18.36904116 108.3640727 19.32025246 112.86963891 20.3125 117.375 C22.21806578 125.96766295 24.43638341 134.42273992 26.94458008 142.85888672 C28.09962686 146.75790054 29.16140851 150.62268418 29.98828125 154.60546875 C30.76580803 158.25712486 31.90239754 161.60928418 33.26806641 165.07861328 C34.43521358 168.14247195 35.29361471 171.28469881 36.1875 174.4375 C38.38078161 182.03820505 40.72624608 189.58676598 43.125 197.125 C43.46168701 198.19161865 43.79837402 199.2582373 44.14526367 200.35717773 C45.85727747 205.7107655 47.74889666 210.84521283 50 216 C51.17321141 219.21268526 52.27179847 222.45021127 53.375 225.6875 C55.71295311 232.49017731 58.18807666 239.12989307 61.15234375 245.6875 C62 248 62 248 62 252 C62.66 252 63.32 252 64 252 C64.29132813 252.85980469 64.58265625 253.71960938 64.8828125 254.60546875 C67.39439203 261.84797953 70.17470563 268.79003735 73.46875 275.72265625 C75.04473679 279.09575042 76.49827314 282.50402528 77.9375 285.9375 C80.45870624 291.87940534 83.28285198 297.61138235 86.21484375 303.359375 C88.14233417 307.21225045 89.81817979 311.16030638 91.5 315.125 C94.00367192 320.98967024 96.87192605 326.41872931 100.18359375 331.87890625 C102.28683738 335.49286681 104.15368184 339.18766507 106 342.9375 C110.74243985 352.56071992 115.78965957 361.99879905 121.15234375 371.29296875 C122 373 122 373 122 375 C118.60056313 374.41651457 115.71666942 373.56590903 112.59375 372.109375 C111.76617187 371.72910156 110.93859375 371.34882813 110.0859375 370.95703125 C109.23257812 370.55871094 108.37921875 370.16039062 107.5 369.75 C100.86530338 366.66143433 94.1840478 363.86377894 87.33886719 361.27246094 C84.06243419 360.02379402 80.80723581 358.7313681 77.5546875 357.421875 C63.39595488 351.74659354 49.21639959 346.57827283 34.703125 341.875 C31.40136438 340.80491293 28.13332949 339.70054131 24.89453125 338.453125 C20.15234106 336.6360813 15.30068316 335.20488012 10.4375 333.75 C8.3631683 333.12667784 6.28895244 332.50297009 4.21484375 331.87890625 C3.16925293 331.56453613 2.12366211 331.25016602 1.04638672 330.92626953 C-1.72450073 330.08376697 -4.48645558 329.21836449 -7.24609375 328.33984375 C-19.72588342 324.39503553 -32.32745378 321.00977441 -45 317.75 C-45.83007568 317.53540131 -46.66015137 317.32080261 -47.51538086 317.09970093 C-56.85817146 314.69084659 -66.1801443 312.50766119 -75.65698242 310.6887207 C-78.6501663 310.07207192 -81.55160642 309.33634135 -84.48828125 308.49609375 C-91.29694068 306.5656548 -98.23147222 305.33321443 -105.1875 304.0625 C-106.61142015 303.799781 -108.03532951 303.53700349 -109.45922852 303.27416992 C-113.63766968 302.50594033 -117.81836079 301.7506045 -122 301 C-123.12857422 300.79697266 -124.25714844 300.59394531 -125.41992188 300.38476562 C-137.53970391 298.22727788 -149.6624376 296.46188855 -161.89453125 295.07348633 C-166.5337128 294.54568601 -171.1567739 294.00543434 -175.765625 293.25390625 C-200.59580326 289.21105396 -226.15135878 288.03768519 -251.27832031 287.29052734 C-257.54888016 287.10257198 -263.75835499 286.63052971 -270 286 C-270 285.34 -270 284.68 -270 284 C-269.34 284 -268.68 284 -268 284 C-268 283.34 -268 282.68 -268 282 C-267.34 282 -266.68 282 -266 282 C-266 281.34 -266 280.68 -266 280 C-265.34 280 -264.68 280 -264 280 C-264 279.34 -264 278.68 -264 278 C-263.34 278 -262.68 278 -262 278 C-262 277.34 -262 276.68 -262 276 C-261.34 276 -260.68 276 -260 276 C-259.73646729 275.40977051 -259.47293457 274.81954102 -259.20141602 274.21142578 C-257.95023299 271.90839473 -256.65195022 270.43638558 -254.77734375 268.6171875 C-253.84631836 267.70259766 -253.84631836 267.70259766 -252.89648438 266.76953125 C-252.25001953 266.14433594 -251.60355469 265.51914062 -250.9375 264.875 C-249.6527607 263.62463926 -248.37010319 262.37213484 -247.08984375 261.1171875 C-246.23700806 260.29130127 -246.23700806 260.29130127 -245.36694336 259.44873047 C-243.89270095 258.02585988 -243.89270095 258.02585988 -243 256 C-242.34 256 -241.68 256 -241 256 C-241 255.34 -241 254.68 -241 254 C-240.34 254 -239.68 254 -239 254 C-238.67237671 253.18233154 -238.67237671 253.18233154 -238.33813477 252.34814453 C-236.55826362 249.22484574 -234.14311186 246.9157703 -231.58984375 244.4296875 C-231.06234024 243.90738556 -230.53483673 243.38508362 -229.99134827 242.84695435 C-228.3114287 241.18479666 -226.62495728 239.52950195 -224.9375 237.875 C-223.24736984 236.21249027 -221.5587228 234.54854046 -219.87294006 232.88162231 C-218.82509029 231.8460278 -217.77457886 230.81311817 -216.72117615 229.78317261 C-214.01638571 227.15409686 -214.01638571 227.15409686 -212 224 C-211.34 224 -210.68 224 -210 224 C-210 223.34 -210 222.68 -210 222 C-209.34 222 -208.68 222 -208 222 C-208 221.34 -208 220.68 -208 220 C-198.70105756 221.54899296 -189.54440977 223.64559719 -180.375 225.8125 C-179.6208783 225.98985687 -178.86675659 226.16721375 -178.08978271 226.34994507 C-168.42172952 228.62844518 -158.84363744 231.04244555 -149.3515625 233.98046875 C-145.23921534 235.2314275 -141.09247725 236.2556604 -136.90625 237.2265625 C-134.51324192 237.86341143 -132.2134305 238.5838347 -129.87109375 239.37890625 C-124.48511037 241.2029563 -119.02924264 242.75101475 -113.5625 244.3125 C-102.14282129 247.60558798 -90.8264867 251.15981638 -79.65234375 255.21484375 C-77.05001723 256.25723619 -77.05001723 256.25723619 -74.6875 255.25 C-72.85705945 254.09122685 -72.85705945 254.09122685 -72 252 C-71.34 252 -70.68 252 -70 252 C-70 251.34 -70 250.68 -70 250 C-69.34 250 -68.68 250 -68 250 C-68 249.34 -68 248.68 -68 248 C-67.34 248 -66.68 248 -66 248 C-66 247.34 -66 246.68 -66 246 C-64.125 243.875 -64.125 243.875 -62 242 C-61.34 242 -60.68 242 -60 242 C-60 241.34 -60 240.68 -60 240 C-59.34 240 -58.68 240 -58 240 C-58 239.34 -58 238.68 -58 238 C-57.34 238 -56.68 238 -56 238 C-56 237.34 -56 236.68 -56 236 C-55.34 236 -54.68 236 -54 236 C-54 235.34 -54 234.68 -54 234 C-53.34 234 -52.68 234 -52 234 C-52 233.34 -52 232.68 -52 232 C-51.34 232 -50.68 232 -50 232 C-50 231.34 -50 230.68 -50 230 C-49.34 230 -48.68 230 -48 230 C-48 229.34 -48 228.68 -48 228 C-47.34 228 -46.68 228 -46 228 C-45.34 226.68 -44.68 225.36 -44 224 C-43.34 224 -42.68 224 -42 224 C-42 223.34 -42 222.68 -42 222 C-41.34 222 -40.68 222 -40 222 C-40 221.34 -40 220.68 -40 220 C-39.34 220 -38.68 220 -38 220 C-37.74331543 219.41734375 -37.48663086 218.8346875 -37.22216797 218.234375 C-35.88823854 215.79567702 -34.4241991 214.19621511 -32.4453125 212.25 C-31.74792969 211.5590625 -31.05054688 210.868125 -30.33203125 210.15625 C-29.60371094 209.4446875 -28.87539063 208.733125 -28.125 208 C-27.40441406 207.2884375 -26.68382812 206.576875 -25.94140625 205.84375 C-24.59359046 204.51330936 -23.24372408 203.18494043 -21.89111328 201.859375 C-21.2670459 201.24578125 -20.64297852 200.6321875 -20 200 C-19.24058105 199.36578125 -18.48116211 198.7315625 -17.69873047 198.078125 C-15.71379965 196.12649534 -15.71379965 196.12649534 -16.13574219 193.52246094 C-16.94348402 191.16495003 -17.79612713 188.90860863 -18.828125 186.640625 C-19.2094458 185.78855469 -19.5907666 184.93648437 -19.98364258 184.05859375 C-20.40154053 183.13175781 -20.81943848 182.20492187 -21.25 181.25 C-25.67317611 171.25589785 -29.80201746 161.16462839 -33.8125 151 C-34.0844519 150.3150647 -34.35640381 149.63012939 -34.63659668 148.92443848 C-38.42157637 139.38047806 -41.81173508 129.76260912 -45 120 C-45.89986657 117.31423929 -46.80961732 114.63185444 -47.71875 111.94921875 C-56.75968254 85.15872437 -56.75968254 85.15872437 -60.1953125 71.97265625 C-60.86783481 69.09935517 -60.86783481 69.09935517 -62 67 C-62.50390625 64.3359375 -62.50390625 64.3359375 -62 61 C-59.95423617 58.21739161 -57.47152622 55.95967413 -54.9375 53.625 C-53.54125879 52.2882421 -52.14670134 50.94972311 -50.75390625 49.609375 C-50.12299072 49.01608398 -49.4920752 48.42279297 -48.84204102 47.81152344 C-46.36486673 45.37538915 -44.12494843 42.76704393 -41.890625 40.109375 C-38.54473631 36.37635869 -34.93415398 32.89626594 -31.35302734 29.39013672 C-28.29747964 26.48668127 -28.29747964 26.48668127 -26 23 C-25.34 23 -24.68 23 -24 23 C-24 22.34 -24 21.68 -24 21 C-23.34 21 -22.68 21 -22 21 C-21.74855225 20.42475586 -21.49710449 19.84951172 -21.23803711 19.25683594 C-18.8651642 14.93129123 -15.03379909 11.70696673 -11.5625 8.25 C-10.78583984 7.45722656 -10.00917969 6.66445312 -9.20898438 5.84765625 C-8.0865332 4.72423828 -8.0865332 4.72423828 -6.94140625 3.578125 C-6.25763916 2.89137695 -5.57387207 2.20462891 -4.86938477 1.49707031 C-3 0 -3 0 0 0 Z M-2.0390625 229.90625 C-2.89242187 230.7621875 -3.74578125 231.618125 -4.625 232.5 C-5.46289062 233.3353125 -6.30078125 234.170625 -7.1640625 235.03125 C-9.23011706 237.14870984 -11.16828158 239.34479764 -13.08984375 241.59375 C-18.07891138 247.34450735 -23.53554545 252.64220766 -28.9375 258 C-30.01390654 259.07137887 -31.09008014 260.14299182 -32.16601562 261.21484375 C-34.77466745 263.81259638 -37.38644471 266.40717962 -40 269 C-37.6873798 271.65224553 -35.71179269 272.6620733 -32.390625 273.76171875 C-25.18471767 276.25725569 -18.1206346 279.07012051 -11.04052734 281.89868164 C-8.76961758 282.80467346 -6.49620599 283.70417308 -4.22265625 284.60351562 C4.22621061 287.96463898 12.52025699 291.54307241 20.73144531 295.44897461 C24.70553151 297.33479546 28.71503398 299.1242916 32.75 300.875 C33.4203125 301.16890625 34.090625 301.4628125 34.78125 301.765625 C37.49951974 302.95079061 40.18501701 304.06167234 43 305 C41.35714345 300.37666053 38.95423744 296.37109311 36.4375 292.1875 C29.56623986 280.63407588 23.01000271 268.93262029 16.6796875 257.07421875 C15.01587444 254.02905392 13.27304714 251.04515931 11.5 248.0625 C7.65137184 241.54339515 4.31075514 234.80264582 1 228 C-0.34347348 227.88618061 -0.34347348 227.88618061 -2.0390625 229.90625 Z " fill="#FFF" transform="translate(287,64)"/>
<path d="M0 0 C1.06927734 0.00966797 1.06927734 0.00966797 2.16015625 0.01953125 C14.48610687 0.64158857 25.7050409 7.42292113 35 15 C35.88816406 15.69609375 36.77632813 16.3921875 37.69140625 17.109375 C39.9113098 18.92736708 41.46880068 20.58231686 43 23 C43 23.66 43 24.32 43 25 C43.66 25 44.32 25 45 25 C54.01112598 41.86643058 59.60032602 59.07002074 54.9609375 78.3671875 C51.31673184 88.35171845 46.10105395 99.84437977 37.9375 106.8125 C37.26589844 107.39644531 36.59429687 107.98039062 35.90234375 108.58203125 C34 110 34 110 31 111 C31 111.66 31 112.32 31 113 C13.06687818 122.58102067 -3.60959886 127.36054113 -23.83984375 122.06640625 C-29.44250234 120.17576868 -34.72934607 117.66551893 -40 115 C-40 114.34 -40 113.68 -40 113 C-40.71285156 112.773125 -41.42570312 112.54625 -42.16015625 112.3125 C-53.64850574 107.00289143 -60.72138137 93.82035776 -65.140625 82.6171875 C-70.79602677 65.39391846 -68.81023992 48.9276254 -61.125 32.6875 C-58.58684769 27.83666576 -55.85144828 22.94425427 -52 19 C-51.34 19 -50.68 19 -50 19 C-50 18.34 -50 17.68 -50 17 C-35.39985367 4.63255971 -19.14102097 -0.84488525 0 0 Z M-33 42 C-38.56768589 49.88609137 -40.17505337 58.51893214 -39 68 C-37.42534028 72.88824224 -35.29199426 77.41601149 -33 82 C-32.34 82 -31.68 82 -31 82 C-30.34 83.32 -29.68 84.64 -29 86 C-28.34 86 -27.68 86 -27 86 C-27 86.66 -27 87.32 -27 88 C-19.79341378 93.86730914 -11.59388276 96.31306268 -2.3671875 95.875 C7.05692566 94.45695162 14.63000199 89.33628576 20.53515625 82 C25.3981783 75.3603539 28.61411095 68.4002147 27.8125 60 C26.03890912 49.64717885 21.74916412 42.07532376 14 35 C13.34 35 12.68 35 12 35 C12 34.34 12 33.68 12 33 C-3.28473523 24.10706314 -22.15489238 28.11704711 -33 42 Z " fill="#FFF" transform="translate(171,144)"/>
<path d="M0 0 C0.33 0.99 0.66 1.98 1 3 C-2.33333333 6.33333333 -5.66666667 9.66666667 -9 13 C-9.66 12.67 -10.32 12.34 -11 12 C-9.54234835 10.37438849 -8.08385614 8.74953066 -6.625 7.125 C-5.81289062 6.22007813 -5.00078125 5.31515625 -4.1640625 4.3828125 C-2.80923795 2.89103817 -1.42494565 1.42494565 0 0 Z " fill="#FFF" transform="translate(250,99)"/>
<path d="M0 0 C0.66 0.99 1.32 1.98 2 3 C0.42173185 4.46381359 -1.16282229 5.92085163 -2.75 7.375 C-3.63171875 8.18710937 -4.5134375 8.99921875 -5.421875 9.8359375 C-7.59802521 11.6625848 -9.40820119 12.89787994 -12 14 C-12 13.34 -12 12.68 -12 12 C-11.34 12 -10.68 12 -10 12 C-10 11.34 -10 10.68 -10 10 C-9.34 10 -8.68 10 -8 10 C-8 9.34 -8 8.68 -8 8 C-7.34 8 -6.68 8 -6 8 C-6 7.34 -6 6.68 -6 6 C-5.34 6 -4.68 6 -4 6 C-4 5.34 -4 4.68 -4 4 C-3.34 4 -2.68 4 -2 4 C-2 3.34 -2 2.68 -2 2 C-1.34 2 -0.68 2 0 2 C0 1.34 0 0.68 0 0 Z " fill="#FFF" transform="translate(241,290)"/>
<path d="M0 0 C0.33 0.66 0.66 1.32 1 2 C0.67 2.66 0.34 3.32 0 4 C0.66 4.33 1.32 4.66 2 5 C1.01 5 0.02 5 -1 5 C-2.68816933 6.64488294 -4.35353315 8.31337542 -6 10 C-8.3125 11.3125 -8.3125 11.3125 -10 12 C-8.52278578 8.54798361 -6.56205999 6.35038064 -3.875 3.75 C-3.15054687 3.04359375 -2.42609375 2.3371875 -1.6796875 1.609375 C-1.12539063 1.07828125 -0.57109375 0.5471875 0 0 Z " fill="#FFF" transform="translate(275,73)"/>
<path d="M0 0 C0.33 0.99 0.66 1.98 1 3 C-1.80804268 5.96404505 -4.18315774 8.44499019 -8 10 C-6.34908222 5.70761377 -3.26245434 3.1206085 0 0 Z " fill="#FFF" transform="translate(56,308)"/>
<path d="M0 0 C0 3.49889647 -0.54120332 4.0553603 -2.75 6.625 C-3.26046875 7.23601562 -3.7709375 7.84703125 -4.296875 8.4765625 C-6.19607419 10.17538747 -7.51275949 10.5998787 -10 11 C-6.79239749 7.19364503 -3.59253891 3.45436433 0 0 Z " fill="#FFF" transform="translate(67,297)"/>
<path d="M0 0 C0.33 1.32 0.66 2.64 1 4 C0.34 4 -0.32 4 -1 4 C-1.33 4.66 -1.66 5.32 -2 6 C-2.66 5.67 -3.32 5.34 -4 5 C-4 5.66 -4 6.32 -4 7 C-4.66 7 -5.32 7 -6 7 C-6.33 7.99 -6.66 8.98 -7 10 C-7.66 9.67 -8.32 9.34 -9 9 C-8.34 8.01 -7.68 7.02 -7 6 C-6.34 6 -5.68 6 -5 6 C-5 5.34 -5 4.68 -5 4 C-3.37373596 2.61767557 -1.7074998 1.28062485 0 0 Z " fill="#FFF" transform="translate(126,157)"/>
<path d="M0 0 C1.79068573 2.6860286 2.66055791 4.6626589 3.625 7.6875 C3.88539063 8.49574219 4.14578125 9.30398437 4.4140625 10.13671875 C4.60742188 10.75160156 4.80078125 11.36648437 5 12 C3.68 11.67 2.36 11.34 1 11 C0.67 7.37 0.34 3.74 0 0 Z " fill="#FFF" transform="translate(132,212)"/>
<path d="M0 0 C0.66 0 1.32 0 2 0 C2 0.66 2 1.32 2 2 C2.99 2.33 3.98 2.66 5 3 C4.67 5.31 4.34 7.62 4 10 C1.04816899 7.04816899 0.91336012 4.04488053 0 0 Z " fill="#FFF" transform="translate(243,185)"/>
<path d="M0 0 C0.33 1.32 0.66 2.64 1 4 C-3.75 8 -3.75 8 -6 8 C-4.55746343 4.63408134 -2.66735273 2.48952921 0 0 Z " fill="#FFF" transform="translate(33,332)"/>
<path d="M0 0 C0 0.66 0 1.32 0 2 C-3.37462715 1.45276317 -5.08235 0.9451 -8 -1 C-4.59745511 -2.2151946 -3.06748874 -1.86240388 0 0 Z " fill="#FFF" transform="translate(374,422)"/>
</svg>
