<?xml version="1.0" encoding="UTF-8"?>
<svg version="1.1" xmlns="http://www.w3.org/2000/svg" width="359" height="359">
<path d="M0 0 C2.41529464 0.02376342 4.82948942 0.02050942 7.24487305 0.01391602 C17.96323782 0.03337493 28.63041692 0.31891525 38.66870117 4.49633789 C41.10927872 5.49581251 43.59546267 6.3063547 46.09448242 7.14868164 C51.78251205 9.21206342 56.62998783 12.10538962 61.71948242 15.33618164 C64.33956182 16.87762436 66.9640316 18.41125604 69.59057617 19.94165039 C71.58338556 21.24703196 73.11433253 22.58651664 74.71948242 24.33618164 C77.32089198 22.67248912 77.32089198 22.67248912 79.71948242 20.33618164 C80.13818795 17.66690043 80.13818795 17.66690043 79.71948242 15.33618164 C79.05948242 15.33618164 78.39948242 15.33618164 77.71948242 15.33618164 C77.74682617 13.49633789 77.74682617 13.49633789 78.71948242 11.33618164 C81.2851477 10.26942093 83.61821063 9.4848324 86.28198242 8.77368164 C87.74602722 8.35355599 89.2095764 7.93169911 90.67260742 7.50805664 C91.37450195 7.30889648 92.07639648 7.10973633 92.79956055 6.90454102 C95.09309437 6.22558034 97.31052916 5.40892242 99.53198242 4.52368164 C102.71948242 3.33618164 102.71948242 3.33618164 105.71948242 3.33618164 C105.14574352 12.42541365 104.108978 21.33818598 102.71948242 30.33618164 C98.71948242 30.33618164 98.71948242 30.33618164 94.71948242 29.33618164 C92.73948242 31.97618164 90.75948242 34.61618164 88.71948242 37.33618164 C89.83977259 38.81891863 90.9658686 40.2972705 92.09448242 41.77368164 C92.7209668 42.59739258 93.34745117 43.42110352 93.99291992 44.26977539 C95.55702146 46.42146256 95.55702146 46.42146256 97.71948242 47.33618164 C98.69686407 48.9876196 99.6663249 50.64447862 100.58666992 52.32836914 C101.69550358 54.29368121 102.90750657 56.14553869 104.15698242 58.02368164 C112.59013599 71.48578 116.78664383 87.86128535 119.71948242 103.33618164 C120.87706055 103.39676758 122.03463867 103.45735352 123.22729492 103.51977539 C124.76636699 103.60423666 126.30542897 103.68888182 127.84448242 103.77368164 C128.6050293 103.81299805 129.36557617 103.85231445 130.14916992 103.89282227 C134.40457445 104.13127166 138.52319068 104.53848401 142.71948242 105.33618164 C142.71948242 102.69618164 142.71948242 100.05618164 142.71948242 97.33618164 C147.64274466 97.88531474 151.11243519 100.14122733 155.21948242 102.71118164 C155.87045898 103.11079102 156.52143555 103.51040039 157.19213867 103.92211914 C158.4580908 104.69959277 159.72123945 105.48165432 160.98120117 106.26879883 C162.52707403 107.21803424 164.10581966 108.11326015 165.68823242 109.00024414 C166.35854492 109.44110352 167.02885742 109.88196289 167.71948242 110.33618164 C167.71948242 110.99618164 167.71948242 111.65618164 167.71948242 112.33618164 C165.91870117 113.78149414 165.91870117 113.78149414 163.40698242 115.46118164 C158.49302925 118.79089313 153.72106566 122.27533737 148.96948242 125.83227539 C146.71948242 127.33618164 146.71948242 127.33618164 144.71948242 127.33618164 C144.05948242 124.69618164 143.39948242 122.05618164 142.71948242 119.33618164 C131.33448242 120.32618164 131.33448242 120.32618164 119.71948242 121.33618164 C119.37916992 125.48180664 119.37916992 125.48180664 119.03198242 129.71118164 C117.06498564 149.70494208 110.58300034 168.46277007 98.63745117 184.66430664 C97.06524904 186.85450268 95.82119939 188.8879217 94.71948242 191.33618164 C95.21448242 191.78993164 95.70948242 192.24368164 96.21948242 192.71118164 C97.71948242 194.33618164 97.71948242 194.33618164 97.71948242 196.33618164 C101.93849199 196.77229574 101.93849199 196.77229574 105.46948242 194.83618164 C105.88198242 194.34118164 106.29448242 193.84618164 106.71948242 193.33618164 C107.37948242 193.33618164 108.03948242 193.33618164 108.71948242 193.33618164 C109.17404186 195.36421605 109.62716369 197.39257874 110.07495117 199.42211914 C110.55099947 201.5744345 111.03378857 203.7252615 111.52026367 205.87524414 C111.79225586 207.09985352 112.06424805 208.32446289 112.34448242 209.58618164 C112.60487305 210.74633789 112.86526367 211.90649414 113.13354492 213.10180664 C113.65125875 215.95958699 113.76548981 218.44937145 113.71948242 221.33618164 C109.76696572 220.81389294 105.81610602 220.28060821 101.86645508 219.73706055 C100.5224648 219.55368588 99.17805928 219.37332833 97.83325195 219.19604492 C95.90103528 218.94079268 93.97038016 218.67380594 92.03979492 218.40649414 C90.87722168 218.24938965 89.71464844 218.09228516 88.5168457 217.93041992 C85.71948242 217.33618164 85.71948242 217.33618164 83.71948242 215.33618164 C85.09448242 213.83618164 85.09448242 213.83618164 86.71948242 212.33618164 C87.37948242 212.33618164 88.03948242 212.33618164 88.71948242 212.33618164 C86.73948242 207.88118164 86.73948242 207.88118164 84.71948242 203.33618164 C81.22151225 205.08516673 78.91642368 206.72411338 75.96948242 209.21118164 C72.30148904 212.20051546 68.85278823 214.47127663 64.55932617 216.41821289 C62.40695392 217.42088708 62.40695392 217.42088708 59.59448242 219.71118164 C48.87445666 227.59355353 30.77700953 233.62529227 17.40698242 233.39868164 C16.19010742 233.37805664 14.97323242 233.35743164 13.71948242 233.33618164 C13.6257112 240.75452746 13.54546049 247.99854457 14.71948242 255.33618164 C17.02948242 255.33618164 19.33948242 255.33618164 21.71948242 255.33618164 C20.36823577 259.10757155 18.64977426 262.05042953 16.28198242 265.27368164 C13.71779594 268.85186319 11.58037073 272.33527179 9.71948242 276.33618164 C8.73560537 278.01241662 7.74085699 279.68252758 6.71948242 281.33618164 C4.93041992 281.17993164 4.93041992 281.17993164 2.71948242 280.33618164 C1.00854492 277.92993164 1.00854492 277.92993164 -0.65551758 274.83618164 C-3.28053266 270.07940485 -6.06060964 265.59751471 -9.21411133 261.17602539 C-10.28051758 259.33618164 -10.28051758 259.33618164 -10.28051758 256.33618164 C-7.97051758 256.33618164 -5.66051758 256.33618164 -3.28051758 256.33618164 C-3.16592732 248.92601141 -3.36891472 241.69411897 -4.28051758 234.33618164 C-5.3865332 234.37743164 -6.49254883 234.41868164 -7.63208008 234.46118164 C-25.8975771 234.42909469 -44.86682862 226.4748902 -60.04223633 216.75805664 C-61.87568091 215.59335537 -63.77064885 214.52602981 -65.67895508 213.48852539 C-86.17001541 201.84282305 -100.93984194 177.7067607 -109.28051758 156.33618164 C-109.63114258 155.61430664 -109.98176758 154.89243164 -110.34301758 154.14868164 C-111.7373267 149.96575429 -111.95733117 145.71620797 -112.28051758 141.33618164 C-112.94051758 141.33618164 -113.60051758 141.33618164 -114.28051758 141.33618164 C-118.87741888 111.35024087 -113.66634477 81.6725578 -98.28051758 55.33618164 C-96.04943328 52.35762748 -93.71430023 49.53813628 -91.27270508 46.73071289 C-89.58727128 44.70488756 -88.38875697 42.92248016 -87.21801758 40.58618164 C-84.59348449 36.18373904 -81.21404942 33.55452587 -77.28051758 30.33618164 C-76.44907227 29.5846582 -75.61762695 28.83313477 -74.76098633 28.05883789 C-53.48504678 9.22293616 -28.24665386 -0.2964848 0 0 Z M5.71948242 18.33618164 C6.28538086 19.44477539 6.8512793 20.55336914 7.43432617 21.69555664 C8.17542417 23.15899067 8.91629786 24.62253831 9.65698242 26.08618164 C10.03016602 26.81579102 10.40334961 27.54540039 10.7878418 28.29711914 C11.14555664 29.00610352 11.50327148 29.71508789 11.87182617 30.44555664 C12.20174561 31.09492187 12.53166504 31.74428711 12.87158203 32.41333008 C13.73400358 34.36911243 14.26322421 36.25158858 14.71948242 38.33618164 C13.72948242 38.99618164 12.73948242 39.65618164 11.71948242 40.33618164 C11.28555901 42.86870389 11.28555901 42.86870389 11.39135742 45.83227539 C11.39651367 46.94924805 11.40166992 48.0662207 11.40698242 49.21704102 C11.42760742 50.39073242 11.44823242 51.56442383 11.46948242 52.77368164 C11.47463867 53.91256836 11.47979492 55.05145508 11.48510742 56.22485352 C10.94868282 68.83531117 10.94868282 68.83531117 14.71948242 80.33618164 C18.71878219 81.66862278 18.71878219 81.66862278 22.71948242 81.33618164 C25.87301697 79.06991274 28.4075352 76.45362111 30.71948242 73.33618164 C30.71948242 72.67618164 30.71948242 72.01618164 30.71948242 71.33618164 C31.29698242 71.09770508 31.87448242 70.85922852 32.46948242 70.61352539 C35.1883785 69.06998543 36.70257424 67.2861203 38.71948242 64.89868164 C43.15582246 59.8306773 47.91432501 55.36408054 52.92260742 50.87915039 C55.60624064 48.4391431 58.17074751 45.91583708 60.71948242 43.33618164 C61.31760742 42.77930664 61.91573242 42.22243164 62.53198242 41.64868164 C63.9431202 40.38399893 63.9431202 40.38399893 63.71948242 38.33618164 C63.05948242 38.33618164 62.39948242 38.33618164 61.71948242 38.33618164 C61.71948242 37.67618164 61.71948242 37.01618164 61.71948242 36.33618164 C60.07360267 34.59342388 60.07360267 34.59342388 57.96948242 32.83618164 C57.27338867 32.22774414 56.57729492 31.61930664 55.86010742 30.99243164 C53.8656158 29.44924834 51.98941617 28.40743935 49.71948242 27.33618164 C48.95635742 26.77930664 48.19323242 26.22243164 47.40698242 25.64868164 C43.83797403 23.90567754 41.52706481 24.51493838 37.71948242 25.33618164 C37.38948242 24.01618164 37.05948242 22.69618164 36.71948242 21.33618164 C32.38674428 20.40773775 29.05222056 20.40773775 24.71948242 21.33618164 C24.47198242 20.69680664 24.22448242 20.05743164 23.96948242 19.39868164 C22.93959092 17.21013921 22.93959092 17.21013921 20.99291992 16.71899414 C18.33191994 16.27092198 15.79303691 16.16686597 13.09448242 16.14868164 C12.1328418 16.13450195 11.17120117 16.12032227 10.18041992 16.10571289 C7.54142494 16.0888434 7.54142494 16.0888434 5.71948242 18.33618164 Z M-41.28051758 26.33618164 C-42.17125977 26.76415039 -43.06200195 27.19211914 -43.97973633 27.63305664 C-55.69161484 33.58088652 -66.74785259 42.32041235 -75.28051758 52.33618164 C-75.28051758 52.99618164 -75.28051758 53.65618164 -75.28051758 54.33618164 C-76.16030273 54.68616211 -76.16030273 54.68616211 -77.05786133 55.04321289 C-83.2219196 58.62898317 -86.84672159 66.91981041 -89.28051758 73.33618164 C-89.65821289 74.18438477 -90.0359082 75.03258789 -90.42504883 75.90649414 C-95.42367654 87.23268987 -99.53530474 99.77501584 -99.34301758 112.27368164 C-99.33399414 113.04583008 -99.3249707 113.81797852 -99.31567383 114.61352539 C-99.30407227 115.18200195 -99.2924707 115.75047852 -99.28051758 116.33618164 C-93.54539795 115.93588776 -89.99963976 114.20701904 -85.53051758 110.77368164 C-79.64527479 106.33618164 -79.64527479 106.33618164 -76.28051758 106.33618164 C-75.95051758 108.64618164 -75.62051758 110.95618164 -75.28051758 113.33618164 C-74.64460693 113.17553223 -74.00869629 113.01488281 -73.35351562 112.84936523 C-69.26137492 112.16598716 -65.25457163 112.16112423 -61.11254883 112.12524414 C-59.31501326 112.09720237 -57.51748732 112.06853814 -55.7199707 112.03930664 C-52.89550782 111.99788283 -50.07123005 111.96097982 -47.24658203 111.93481445 C-44.5140323 111.90733021 -41.7822905 111.86149506 -39.05004883 111.81274414 C-38.2011055 111.80949127 -37.35216217 111.8062384 -36.47749329 111.80288696 C-33.85385557 111.78212833 -33.85385557 111.78212833 -30.28051758 111.33618164 C-27.93982637 108.47605008 -27.93982637 108.47605008 -28.46801758 105.02368164 C-29.75767421 99.17062464 -32.24067306 94.75476159 -36.28051758 90.33618164 C-39.57028566 89.23959228 -40.99355525 89.53665026 -44.28051758 90.33618164 C-44.28051758 87.69618164 -44.28051758 85.05618164 -44.28051758 82.33618164 C-47.33322221 82.17806776 -47.33322221 82.17806776 -50.28051758 83.33618164 C-53.48768222 75.38799101 -53.95641264 67.81879008 -54.28051758 59.33618164 C-51.44687947 59.95982422 -48.61360799 60.58505978 -45.78051758 61.21118164 C-44.9890332 61.38520508 -44.19754883 61.55922852 -43.38208008 61.73852539 C-38.32580825 62.85753637 -33.29909577 64.05851609 -28.28051758 65.33618164 C-29.05395508 66.44993164 -29.05395508 66.44993164 -29.84301758 67.58618164 C-31.46425166 70.14245283 -31.46425166 70.14245283 -31.21801758 72.52368164 C-30.42185218 74.50667994 -30.42185218 74.50667994 -28.34301758 75.27368164 C-25.49351434 76.74160755 -25.46313382 78.37964103 -24.28051758 81.33618164 C-22.39695048 83.7767175 -20.36275913 86.06405014 -18.28051758 88.33618164 C-16.6103834 87.67824999 -14.94473108 87.0089488 -13.28051758 86.33618164 C-12.36206055 85.97459961 -12.36206055 85.97459961 -11.42504883 85.60571289 C-7.66483594 84.29467231 -7.66483594 84.29467231 -5.28051758 81.33618164 C-5.03408518 78.00955141 -5.09078139 74.67090092 -5.09301758 71.33618164 C-5.09205078 69.86930908 -5.09205078 69.86930908 -5.09106445 68.37280273 C-5.156008 59.26447019 -6.03411176 50.35036658 -7.28051758 41.33618164 C-11.24051758 41.83118164 -11.24051758 41.83118164 -15.28051758 42.33618164 C-13.38854582 38.02248603 -11.47263115 33.72604197 -9.45629883 29.46899414 C-9.13927002 28.79811768 -8.82224121 28.12724121 -8.49560547 27.43603516 C-7.85610917 26.08602337 -7.21340426 24.73752649 -6.56738281 23.390625 C-4.85602513 20.01247744 -4.85602513 20.01247744 -4.28051758 16.33618164 C-16.27492021 16.33618164 -30.71870053 20.94981719 -41.28051758 26.33618164 Z M75.71948242 50.33618164 C73.7224878 52.38226266 73.7224878 52.38226266 71.71948242 55.08618164 C68.27451917 59.44304692 64.73591163 63.62917288 60.96948242 67.71118164 C60.08776367 68.66766602 59.20604492 69.62415039 58.29760742 70.60961914 C55.03643383 74.05855727 51.68131312 77.39901327 48.28198242 80.71118164 C43.66751973 85.4381922 38.78003148 90.45992746 35.71948242 96.33618164 C35.90545748 99.9936912 36.56566257 102.87472209 37.71948242 106.33618164 C44.42314332 106.38746336 51.12675248 106.42215563 57.83056641 106.44604492 C60.10467418 106.45601837 62.37876941 106.46960197 64.65283203 106.48706055 C83.30950083 106.92095468 83.30950083 106.92095468 101.71948242 104.33618164 C104.09350562 102.42441203 104.09350562 102.42441203 103.78198242 99.08618164 C102.91258393 93.13245275 99.10658497 83.72328419 94.71948242 79.33618164 C94.61380765 77.94186174 94.53499319 76.5454649 94.46948242 75.14868164 C93.9743112 70.06708845 92.38786297 67.82561679 88.71948242 64.33618164 C88.05948242 64.33618164 87.39948242 64.33618164 86.71948242 64.33618164 C86.44233398 63.76125977 86.16518555 63.18633789 85.87963867 62.59399414 C84.74250152 60.38097975 83.49305905 58.30902135 82.15698242 56.21118164 C80.92317097 54.27076601 79.7479623 52.39314139 78.71948242 50.33618164 C77.72948242 50.33618164 76.73948242 50.33618164 75.71948242 50.33618164 Z M-6.23754883 92.72680664 C-8.24060495 94.30473995 -10.10608308 95.20499209 -12.40551758 96.27368164 C-16.52224801 98.764957 -18.11728617 102.40658608 -19.90551758 106.71118164 C-20.1776709 107.34789795 -20.44982422 107.98461426 -20.73022461 108.640625 C-22.55600299 113.51331924 -22.1742017 116.56130942 -20.28051758 121.33618164 C-19.62051758 122.32618164 -18.96051758 123.31618164 -18.28051758 124.33618164 C-18.81676758 124.87243164 -19.35301758 125.40868164 -19.90551758 125.96118164 C-21.63667629 128.32597872 -21.63667629 128.32597872 -20.59301758 131.27368164 C-20.15989258 132.28430664 -19.72676758 133.29493164 -19.28051758 134.33618164 C-18.87833008 135.72836914 -18.87833008 135.72836914 -18.46801758 137.14868164 C-17.45511361 139.535753 -17.45511361 139.535753 -14.96801758 140.39868164 C-11.31066895 140.31362702 -9.88278603 138.78974903 -7.28051758 136.33618164 C-6.15293669 139.7189243 -6.46301495 141.10396387 -7.21801758 144.52368164 C-7.41266602 145.42473633 -7.60731445 146.32579102 -7.80786133 147.25415039 C-7.96383789 147.9412207 -8.11981445 148.62829102 -8.28051758 149.33618164 C-5.20598198 148.55978844 -5.20598198 148.55978844 -3.28051758 146.33618164 C-2.95051758 147.98618164 -2.62051758 149.63618164 -2.28051758 151.33618164 C-0.05691078 149.41071724 -0.05691078 149.41071724 0.71948242 146.33618164 C1.04948242 147.98618164 1.37948242 149.63618164 1.71948242 151.33618164 C3.20448242 150.84118164 3.20448242 150.84118164 4.71948242 150.33618164 C4.71948242 149.01618164 4.71948242 147.69618164 4.71948242 146.33618164 C5.37948242 146.33618164 6.03948242 146.33618164 6.71948242 146.33618164 C7.04948242 147.98618164 7.37948242 149.63618164 7.71948242 151.33618164 C8.37948242 151.33618164 9.03948242 151.33618164 9.71948242 151.33618164 C10.04948242 150.01618164 10.37948242 148.69618164 10.71948242 147.33618164 C11.37948242 148.32618164 12.03948242 149.31618164 12.71948242 150.33618164 C13.37948242 150.00618164 14.03948242 149.67618164 14.71948242 149.33618164 C15.04948242 148.34618164 15.37948242 147.35618164 15.71948242 146.33618164 C16.70948242 146.00618164 17.69948242 145.67618164 18.71948242 145.33618164 C17.61007522 141.8494733 16.45610576 138.56133927 14.71948242 135.33618164 C17.66638925 135.74547426 19.41583286 136.0969426 21.78198242 137.96118164 C22.42135742 138.41493164 23.06073242 138.86868164 23.71948242 139.33618164 C25.81866784 138.96650279 25.81866784 138.96650279 27.71948242 138.33618164 C28.02885742 137.09868164 28.33823242 135.86118164 28.65698242 134.58618164 C29.19469795 132.43531954 29.72543173 130.31775908 30.40698242 128.20727539 C30.51010742 127.58981445 30.61323242 126.97235352 30.71948242 126.33618164 C30.08010742 125.61430664 29.44073242 124.89243164 28.78198242 124.14868164 C25.91452695 120.23851509 26.35145789 117.02849445 26.71948242 112.33618164 C27.70948242 113.32618164 28.69948242 114.31618164 29.71948242 115.33618164 C30.61672927 113.69287217 30.61672927 113.69287217 30.71948242 111.33618164 C29.79908977 109.59400984 28.86232982 107.85596452 27.80151367 106.19555664 C26.71948242 104.33618164 26.71948242 104.33618164 25.65698242 100.77368164 C22.73845775 95.595654 18.08088463 93.62673376 12.71948242 91.33618164 C12.05948242 91.33618164 11.39948242 91.33618164 10.71948242 91.33618164 C10.71948242 90.67618164 10.71948242 90.01618164 10.71948242 89.33618164 C3.61734322 87.0634971 -0.69584408 88.05333803 -6.23754883 92.72680664 Z M28.71948242 115.33618164 C28.38948242 116.65618164 28.05948242 117.97618164 27.71948242 119.33618164 C28.37948242 119.00618164 29.03948242 118.67618164 29.71948242 118.33618164 C29.38948242 117.34618164 29.05948242 116.35618164 28.71948242 115.33618164 Z M55.43041992 122.31274414 C52.34969172 123.47578562 49.68648674 123.74495059 46.40698242 123.96118164 C45.33834961 124.03594727 44.2697168 124.11071289 43.16870117 124.18774414 C42.36045898 124.23672852 41.5522168 124.28571289 40.71948242 124.33618164 C40.8819043 124.90723633 41.04432617 125.47829102 41.21166992 126.06665039 C41.71777054 128.32853084 41.78702541 130.33808894 41.84448242 132.64868164 C42.31705824 137.58628417 44.47004543 139.75726392 48.12573242 142.92602539 C49.71948242 144.33618164 49.71948242 144.33618164 50.71948242 146.33618164 C51.37948242 146.33618164 52.03948242 146.33618164 52.71948242 146.33618164 C52.98760742 146.91368164 53.25573242 147.49118164 53.53198242 148.08618164 C55.48892051 151.79406434 56.64886455 153.97930902 60.71948242 155.33618164 C61.73629229 156.99264639 62.73231132 158.66188448 63.71948242 160.33618164 C65.60344824 162.65441754 67.62342465 164.83655434 69.65698242 167.02368164 C70.18227539 167.6044043 70.70756836 168.18512695 71.2487793 168.78344727 C73.92613096 171.68195689 76.09137438 173.68851736 79.71948242 175.33618164 C80.37948242 176.32618164 81.03948242 177.31618164 81.71948242 178.33618164 C82.37948242 178.33618164 83.03948242 178.33618164 83.71948242 178.33618164 C87.730578 172.907151 90.7103157 166.59010316 93.90698242 160.64868164 C94.23972168 160.03178467 94.57246094 159.4148877 94.9152832 158.77929688 C99.11012274 150.88368605 101.41780785 143.84863446 102.90698242 135.02368164 C103.08422852 134.02272461 103.26147461 133.02176758 103.4440918 131.99047852 C104.36295897 127.1907719 104.36295897 127.1907719 104.71948242 122.33618164 C94.12979379 122.23258686 83.68732968 122.32881765 73.13745117 123.31274414 C69.52754703 123.33749777 67.07035231 122.60588448 63.71948242 121.33618164 C60.52443513 121.07536145 58.38778507 121.05106959 55.43041992 122.31274414 Z M-98.28051758 127.33618164 C-98.61051758 127.99618164 -98.94051758 128.65618164 -99.28051758 129.33618164 C-98.53427627 131.04755518 -98.53427627 131.04755518 -97.40551758 132.89868164 C-95.05301799 137.31975844 -94.509893 141.38167256 -94.28051758 146.33618164 C-91.80551758 147.32618164 -91.80551758 147.32618164 -89.28051758 148.33618164 C-89.38750977 149.00004883 -89.49450195 149.66391602 -89.60473633 150.34790039 C-90.34174313 155.77639135 -90.71115545 158.80283874 -87.28051758 163.33618164 C-86.78551758 164.51180664 -86.29051758 165.68743164 -85.78051758 166.89868164 C-84.04458804 170.98698965 -84.04458804 170.98698965 -81.28051758 174.33618164 C-78.1785436 175.14564586 -78.1785436 175.14564586 -75.28051758 175.33618164 C-75.67110352 176.65489258 -75.67110352 176.65489258 -76.06958008 178.00024414 C-76.63239488 181.43818879 -76.63239488 181.43818879 -74.36645508 184.10961914 C-73.4718457 184.96813477 -72.57723633 185.82665039 -71.65551758 186.71118164 C-70.77637695 187.58516602 -69.89723633 188.45915039 -68.99145508 189.35961914 C-66.04752808 191.50605582 -64.82599813 191.80976569 -61.28051758 191.33618164 C-61.08844727 192.21532227 -60.89637695 193.09446289 -60.69848633 194.00024414 C-58.84460733 198.36171154 -56.41464851 200.07859092 -52.59301758 202.71118164 C-51.99295898 203.16106445 -51.39290039 203.61094727 -50.7746582 204.07446289 C-47.38947963 206.46699512 -45.85239567 207.33979731 -41.57348633 207.31274414 C-40.48680664 207.32047852 -39.40012695 207.32821289 -38.28051758 207.33618164 C-37.6952832 208.10317383 -37.11004883 208.87016602 -36.50708008 209.66040039 C-33.06589188 213.7958634 -28.77547877 214.09922723 -23.65551758 215.14868164 C-22.6887207 215.36459961 -21.72192383 215.58051758 -20.72583008 215.80297852 C-16.04533191 216.91568052 -16.04533191 216.91568052 -11.28051758 217.33618164 C-11.18770508 216.16055664 -11.18770508 216.16055664 -11.09301758 214.96118164 C-10.69083008 213.66180664 -10.69083008 213.66180664 -10.28051758 212.33618164 C-7.84301758 211.14868164 -7.84301758 211.14868164 -5.28051758 210.33618164 C-3.09133035 208.55993584 -3.09133035 208.55993584 -3.03759766 206.27661133 C-3.04170654 205.44548828 -3.04581543 204.61436523 -3.05004883 203.75805664 C-3.05198242 202.84411133 -3.05391602 201.93016602 -3.0559082 200.98852539 C-3.0681543 200.03075195 -3.08040039 199.07297852 -3.09301758 198.08618164 C-3.09366211 197.14387695 -3.09430664 196.20157227 -3.0949707 195.23071289 C-3.12500608 190.47177462 -3.42059235 186.02608155 -4.28051758 181.33618164 C-4.46036694 177.78315756 -4.59433578 174.23181727 -4.70629883 170.67602539 C-5.37285763 166.79910176 -6.71834653 165.24297218 -9.28051758 162.33618164 C-10.03051758 159.02368164 -10.03051758 159.02368164 -10.28051758 156.33618164 C-18.99061331 159.05808656 -26.54425973 166.49313545 -32.28051758 173.33618164 C-33.53850568 175.987304 -33.53850568 175.987304 -34.28051758 178.33618164 C-32.96051758 178.99618164 -31.64051758 179.65618164 -30.28051758 180.33618164 C-30.28051758 181.32618164 -30.28051758 182.31618164 -30.28051758 183.33618164 C-35.81960646 185.55554722 -41.27204249 185.97430474 -47.15551758 186.46118164 C-52.16739258 186.89430664 -52.16739258 186.89430664 -57.28051758 187.33618164 C-55.30051758 173.97118164 -55.30051758 173.97118164 -53.28051758 160.33618164 C-49.28051758 161.33618164 -49.28051758 161.33618164 -47.27661133 162.12915039 C-45.13462686 162.58276104 -45.13462686 162.58276104 -43.31567383 160.82446289 C-42.66469727 160.10645508 -42.0137207 159.38844727 -41.34301758 158.64868164 C-39.16396029 156.3125389 -37.23212845 154.30046586 -34.65551758 152.39868164 C-31.00486754 149.2283803 -28.07163943 145.8717644 -26.28051758 141.33618164 C-26.66610362 136.90194218 -28.14064797 133.47605124 -31.28051758 130.33618164 C-33.62312401 130.59647124 -35.95776581 130.9357072 -38.28051758 131.33618164 C-42.06758489 131.33618164 -45.54564879 130.91077684 -49.28051758 130.33618164 C-49.71364258 130.99618164 -50.14676758 131.65618164 -50.59301758 132.33618164 C-51.14989258 132.99618164 -51.70676758 133.65618164 -52.28051758 134.33618164 C-53.27051758 134.33618164 -54.26051758 134.33618164 -55.28051758 134.33618164 C-55.94051758 133.34618164 -56.60051758 132.35618164 -57.28051758 131.33618164 C-60.8752813 130.13792707 -64.16601157 130.1900942 -67.90551758 130.21118164 C-68.5990332 130.20731445 -69.29254883 130.20344727 -70.00708008 130.19946289 C-73.43122179 129.90163998 -73.43122179 129.90163998 -76.28051758 131.33618164 C-76.35199956 132.68862081 -76.36451212 134.04452531 -76.34301758 135.39868164 C-76.32239258 136.69805664 -76.30176758 137.99743164 -76.28051758 139.33618164 C-81.09485934 137.09028524 -85.19401001 134.77745117 -89.28051758 131.33618164 C-93.38261186 128.15863124 -93.38261186 128.15863124 -98.28051758 127.33618164 Z M17.71948242 146.33618164 C17.38948242 146.99618164 17.05948242 147.65618164 16.71948242 148.33618164 C17.37948242 148.33618164 18.03948242 148.33618164 18.71948242 148.33618164 C18.38948242 147.67618164 18.05948242 147.01618164 17.71948242 146.33618164 Z M20.32885742 152.62133789 C18.13047587 154.96378813 17.50626464 157.25461795 16.71948242 160.33618164 C16.21288086 161.09157227 15.7062793 161.84696289 15.18432617 162.62524414 C13.42191269 165.88688402 13.41073193 167.97075005 13.53198242 171.64868164 C13.55905273 172.71731445 13.58612305 173.78594727 13.61401367 174.88696289 C13.64881836 175.69520508 13.68362305 176.50344727 13.71948242 177.33618164 C16.19448242 178.32618164 16.19448242 178.32618164 18.71948242 179.33618164 C18.00333659 180.93123372 17.28719076 182.52628581 16.57104492 184.12133789 C13.72065338 191.53497095 13.47223405 197.85104686 13.59448242 205.77368164 C13.60350586 206.88678711 13.6125293 207.99989258 13.62182617 209.14672852 C13.64526002 211.87677187 13.67806842 214.60636174 13.71948242 217.33618164 C27.14413528 215.91470437 38.77422615 213.37421095 50.96948242 207.52368164 C51.65550537 207.20447754 52.34152832 206.88527344 53.04833984 206.55639648 C57.85045586 204.1790881 60.47232782 201.58473976 63.71948242 197.33618164 C64.37948242 197.00618164 65.03948242 196.67618164 65.71948242 196.33618164 C65.71948242 195.67618164 65.71948242 195.01618164 65.71948242 194.33618164 C67.36948242 193.67618164 69.01948242 193.01618164 70.71948242 192.33618164 C70.71948242 191.34618164 70.71948242 190.35618164 70.71948242 189.33618164 C68.72184226 187.95388599 66.63184571 186.9164504 64.46948242 185.81274414 C63.89198242 185.32547852 63.31448242 184.83821289 62.71948242 184.33618164 C62.72077148 183.52536133 62.72206055 182.71454102 62.72338867 181.87915039 C63.01719192 179.22934461 63.01719192 179.22934461 60.99682617 177.59790039 C60.22467773 177.0784082 59.4525293 176.55891602 58.65698242 176.02368164 C53.92882099 172.61881067 50.42953652 168.79017888 46.71948242 164.33618164 C44.57568025 161.93702566 44.57568025 161.93702566 42.71948242 160.33618164 C42.05948242 160.33618164 41.39948242 160.33618164 40.71948242 160.33618164 C40.71948242 159.67618164 40.71948242 159.01618164 40.71948242 158.33618164 C40.05948242 158.33618164 39.39948242 158.33618164 38.71948242 158.33618164 C38.71948242 157.67618164 38.71948242 157.01618164 38.71948242 156.33618164 C36.98400073 154.89091428 35.17972279 153.52745944 33.34448242 152.21118164 C32.34674805 151.48672852 31.34901367 150.76227539 30.32104492 150.01586914 C25.66564544 147.01013074 24.06026865 149.34478878 20.32885742 152.62133789 Z M-10.28051758 215.33618164 C-9.95051758 216.32618164 -9.62051758 217.31618164 -9.28051758 218.33618164 C-7.265434 219.0694196 -7.265434 219.0694196 -5.28051758 219.33618164 C-5.28051758 218.67618164 -5.28051758 218.01618164 -5.28051758 217.33618164 C-7.75551758 216.34618164 -7.75551758 216.34618164 -10.28051758 215.33618164 Z " fill="#FBFCFA" transform="translate(175.280517578125,46.663818359375)"/>
<path d="M0 0 C6.16456078 0.38528505 9.98627748 2.47086025 15 6 C13.19587357 9.26460973 12.16605307 10.88929795 9 13 C3.03235014 13.53282588 3.03235014 13.53282588 0.0625 12 C-1.69871949 8.68476331 -1.23609941 5.71856563 -1 2 C-0.67 1.34 -0.34 0.68 0 0 Z " fill="#FCFCFA" transform="translate(163,166)"/>
<path d="M0 0 C1.70401547 2.60614131 2.00613718 3.89975932 1.8125 7.0625 C0.58544563 11.49877351 0.58544563 11.49877351 -2 13 C-7.16 13.73714286 -7.16 13.73714286 -10 13 C-12.5 10 -12.5 10 -14 7 C-12.42516875 5.82188197 -10.83977627 4.65787174 -9.25 3.5 C-8.36828125 2.8503125 -7.4865625 2.200625 -6.578125 1.53125 C-4 0 -4 0 0 0 Z " fill="#FBFBFB" transform="translate(197,165)"/>
<path d="M0 0 C3.36591427 2.72478774 4.44226276 6.06856792 6 10 C3.08291076 11.98362069 1.87619096 11.9876191 -1.75 11.625 C-2.8225 11.41875 -3.895 11.2125 -5 11 C-5 10.01 -5 9.02 -5 8 C-4.34 8 -3.68 8 -3 8 C-2.690625 6.865625 -2.38125 5.73125 -2.0625 4.5625 C-1 1 -1 1 0 0 Z " fill="#FCFCFC" transform="translate(180,172)"/>
<path d="M0 0 C3.3 0.33 6.6 0.66 10 1 C10.74926071 4.66305234 11.2380014 7.42355152 10 11 C9.01 10.67 8.02 10.34 7 10 C7 8.35 7 6.7 7 5 C4.69 4.01 2.38 3.02 0 2 C0 1.34 0 0.68 0 0 Z " fill="#F6F6F4" transform="translate(105,236)"/>
<path d="M0 0 C0.66 0.66 1.32 1.32 2 2 C1.96712417 4.72869407 1.43602229 7.2966618 1 10 C0.34 10 -0.32 10 -1 10 C-2.23076923 4.58461538 -2.23076923 4.58461538 -1.0625 1.625 C-0.5365625 0.820625 -0.5365625 0.820625 0 0 Z " fill="#FCFCFD" transform="translate(158,159)"/>
<path d="M0 0 C0.33 0.66 0.66 1.32 1 2 C2.98 1.67 4.96 1.34 7 1 C7.33 1.66 7.66 2.32 8 3 C5.75 4.125 5.75 4.125 3 5 C0.6875 4.125 0.6875 4.125 -1 3 C-0.67 2.01 -0.34 1.02 0 0 Z " fill="#F6F6F4" transform="translate(209,64)"/>
<path d="M0 0 C1.65 0.33 3.3 0.66 5 1 C5 1.66 5 2.32 5 3 C4.01 3.33 3.02 3.66 2 4 C1.34 4.66 0.68 5.32 0 6 C-1 3 -1 3 0 0 Z " fill="#F5F6F3" transform="translate(124,208)"/>
<path d="" fill="#FFFFFF" transform="translate(0,0)"/>
<path d="" fill="#FFFFFF" transform="translate(0,0)"/>
<path d="" fill="#FFFFFF" transform="translate(0,0)"/>
<path d="M0 0 C2 1 2 1 2 1 Z " fill="#FFFFFF" transform="translate(197,164)"/>
<path d="" fill="#FFFFFF" transform="translate(0,0)"/>
<path d="" fill="#FFFFFF" transform="translate(0,0)"/>
<path d="" fill="#FFFFFF" transform="translate(0,0)"/>
<path d="" fill="#FFFFFF" transform="translate(0,0)"/>
<path d="" fill="#FFFFFF" transform="translate(0,0)"/>
<path d="" fill="#FFFFFF" transform="translate(0,0)"/>
<path d="" fill="#FFFFFF" transform="translate(0,0)"/>
<path d="" fill="#FFFFFF" transform="translate(0,0)"/>
<path d="" fill="#FFFFFF" transform="translate(0,0)"/>
<path d="" fill="#FFFFFF" transform="translate(0,0)"/>
<path d="" fill="#FFFFFF" transform="translate(0,0)"/>
<path d="" fill="#FFFFFF" transform="translate(0,0)"/>
<path d="" fill="#FFFFFF" transform="translate(0,0)"/>
<path d="" fill="#FFFFFF" transform="translate(0,0)"/>
<path d="" fill="#FFFFFF" transform="translate(0,0)"/>
<path d="" fill="#FFFFFF" transform="translate(0,0)"/>
<path d="" fill="#FFFFFF" transform="translate(0,0)"/>
</svg>
