<?xml version="1.0" encoding="UTF-8"?>
<svg version="1.1" xmlns="http://www.w3.org/2000/svg" width="359" height="366">
<path d="M0 0 C1.07128647 -0.00315216 2.14257294 -0.00630432 3.24632263 -0.009552 C4.40777298 -0.00752777 5.56922333 -0.00550354 6.76586914 -0.00341797 C8.54883141 -0.00485306 8.54883141 -0.00485306 10.36781311 -0.00631714 C12.88550876 -0.00699867 15.40320615 -0.00514625 17.92089844 -0.00097656 C21.78137147 0.00436733 25.6417279 -0.00092007 29.50219727 -0.00732422 C31.94425481 -0.00666334 34.38631229 -0.00538198 36.82836914 -0.00341797 C38.56750832 -0.00645432 38.56750832 -0.00645432 40.34178162 -0.009552 C41.41622025 -0.00639984 42.49065887 -0.00324768 43.59765625 0 C44.5442662 0.00079559 45.49087616 0.00159119 46.46617126 0.00241089 C48.86352539 0.12939453 48.86352539 0.12939453 51.86352539 1.12939453 C53.25024414 3.34423828 53.25024414 3.34423828 54.55102539 6.06689453 C54.98801758 6.96279297 55.42500977 7.85869141 55.87524414 8.78173828 C56.86352539 11.12939453 56.86352539 11.12939453 56.86352539 13.12939453 C57.85352539 13.62439453 57.85352539 13.62439453 58.86352539 14.12939453 C61.84603523 17.87786712 63.74517602 21.4621498 64.86352539 26.12939453 C64.20263581 31.12805661 61.92763794 35.66670622 59.76806641 40.17260742 C56.17442008 47.41398318 56.17442008 47.41398318 55.86352539 55.12939453 C57.22403035 56.98743043 58.70165865 58.66254627 60.26196289 60.35595703 C65.86352539 66.55866282 65.86352539 66.55866282 65.86352539 70.12939453 C66.52352539 70.12939453 67.18352539 70.12939453 67.86352539 70.12939453 C70.60428831 74.41183659 70.34345941 78.74626563 69.37475586 83.55639648 C68.71891693 86.21652122 68.02206721 88.86121205 67.30102539 91.50439453 C66.81536493 93.30247946 66.33460546 95.10189797 65.85961914 96.90283203 C65.64490967 97.69093262 65.4302002 98.4790332 65.20898438 99.29101562 C65.09498291 99.89768066 64.98098145 100.5043457 64.86352539 101.12939453 C65.19352539 101.45939453 65.52352539 101.78939453 65.86352539 102.12939453 C65.93700195 101.47970703 66.01047852 100.83001953 66.08618164 100.16064453 C67.16821318 95.94126527 69.20514209 92.42756802 71.30102539 88.62939453 C72.8437734 85.80711617 74.36483791 82.97529476 75.86352539 80.12939453 C76.33918945 79.24638672 76.81485352 78.36337891 77.30493164 77.45361328 C78.1195157 74.06426004 77.00803183 72.46085366 75.36352539 69.44189453 C74.5262793 67.86988281 74.5262793 67.86988281 73.67211914 66.26611328 C72.0019584 63.36948461 70.23389051 60.56615651 68.42602539 57.75439453 C66.56318873 54.70168314 65.87098505 53.51729678 65.80102539 49.87939453 C67.49281447 45.50064633 69.66821595 41.43363462 72.04711914 37.39501953 C76.46322893 30.17627594 76.46322893 30.17627594 77.59790039 22.07470703 C76.56408984 19.53647069 75.39694232 17.39694024 73.86352539 15.12939453 C70.73165726 9.7008231 70.73165726 9.7008231 71.61352539 5.87939453 C72.33850112 4.28444794 73.08001477 2.69641577 73.86352539 1.12939453 C76.83100278 0.08716538 79.62807232 0.00379258 82.75267029 0.00241089 C84.22676361 -0.00181885 84.22676361 -0.00181885 85.7306366 -0.00613403 C86.80243668 -0.0041098 87.87423676 -0.00208557 88.97851562 0 C90.67909622 -0.00262848 90.67909622 -0.00262848 92.41403198 -0.00531006 C96.16674321 -0.00971612 99.91940742 -0.00679473 103.67211914 -0.00341797 C106.27759307 -0.00409141 108.88306694 -0.00506178 111.48854065 -0.00631714 C116.95183828 -0.00813597 122.41512239 -0.0057403 127.87841797 -0.00097656 C134.18930663 0.00446279 140.50016296 0.00270463 146.81105083 -0.00280297 C152.88723773 -0.00789299 158.96341032 -0.00734744 165.03959846 -0.00442123 C167.62280342 -0.00375372 170.20600919 -0.00457428 172.78921318 -0.00690079 C176.39921126 -0.00943818 180.00914718 -0.00557113 183.61914062 0 C184.68891647 -0.00202423 185.75869232 -0.00404846 186.86088562 -0.00613403 C187.84643433 -0.00331421 188.83198303 -0.00049438 189.84739685 0.00241089 C190.70039084 0.00278791 191.55338484 0.00316494 192.43222713 0.00355339 C194.9912712 0.1360065 197.36644049 0.56743299 199.86352539 1.12939453 C199.86352539 1.78939453 199.86352539 2.44939453 199.86352539 3.12939453 C200.85352539 3.45939453 201.84352539 3.78939453 202.86352539 4.12939453 C202.72964097 12.1137744 202.58579898 19.08199176 196.86352539 25.12939453 C193.81324576 27.0781843 191.55944714 27.15835437 187.92602539 27.50439453 C177.33467002 28.526522 167.29149514 32.35292679 157.86352539 37.12939453 C156.93668945 37.59345703 156.00985352 38.05751953 155.05493164 38.53564453 C137.21355392 47.8398859 123.81986029 62.0415485 117.14868164 81.18017578 C113.17927679 95.17450092 114.79780178 108.030226 121.71899414 120.73876953 C125.04558531 126.33644463 130.00095677 132.19811022 135.86352539 135.12939453 C135.86352539 135.78939453 135.86352539 136.44939453 135.86352539 137.12939453 C136.58540039 137.40783203 137.30727539 137.68626953 138.05102539 137.97314453 C141.59388423 139.42965316 144.95660406 141.16459735 148.36352539 142.91064453 C150.83529467 144.18892019 150.83529467 144.18892019 153.48852539 144.97314453 C156.78595829 146.57847371 157.50355563 147.69667344 158.86352539 151.12939453 C159.31332666 154.82467344 159.32767512 158.47304546 159.30102539 162.19189453 C159.32100586 163.18511719 159.34098633 164.17833984 159.36157227 165.20166016 C159.36092773 166.15878906 159.3602832 167.11591797 159.35961914 168.10205078 C159.36147217 168.97095947 159.3633252 169.83986816 159.36523438 170.73510742 C158.66361536 174.08341774 157.67132501 175.17547902 154.86352539 177.12939453 C152.05601348 177.52775644 149.64862752 177.69113236 146.84399414 177.66064453 C146.06719803 177.66447144 145.29040192 177.66829834 144.49006653 177.67224121 C142.84850772 177.67495894 141.20690551 177.66760732 139.56542969 177.65087891 C137.06939442 177.62955149 134.57626568 177.65063725 132.08032227 177.67626953 C130.4807066 177.67362453 128.88109273 177.66849598 127.28149414 177.66064453 C126.5427153 177.66874146 125.80393646 177.67683838 125.04277039 177.68518066 C119.57685222 177.58774383 116.4222924 176.14298097 111.86352539 173.12939453 C92.95728399 160.76485643 64.08001094 160.37122712 42.64868164 164.30810547 C29.6862668 166.9959205 29.6862668 166.9959205 18.41479492 173.38354492 C11.76073656 178.71343618 3.77474853 177.84743535 -4.32836914 177.72631836 C-6.89441328 177.6917877 -9.45704879 177.70574255 -12.02319336 177.72509766 C-13.65992673 177.71820406 -15.29665127 177.70853608 -16.93334961 177.69580078 C-17.69693787 177.70076065 -18.46052612 177.70572052 -19.24725342 177.71083069 C-22.65659014 177.63528065 -24.77717699 177.3770468 -27.61376953 175.421875 C-30.41672456 171.20193789 -29.75071307 166.60704803 -29.69897461 161.69189453 C-29.73474609 160.13631836 -29.73474609 160.13631836 -29.77124023 158.54931641 C-29.75670099 151.00345022 -29.75670099 151.00345022 -26.94116211 147.03564453 C-24.17918017 145.15842003 -21.8825834 144.03778232 -18.69897461 143.06689453 C-14.22591991 141.58994251 -10.93945487 139.85973933 -7.13647461 137.12939453 C-6.47647461 137.12939453 -5.81647461 137.12939453 -5.13647461 137.12939453 C-4.80647461 136.13939453 -4.47647461 135.14939453 -4.13647461 134.12939453 C-2.53491211 132.65673828 -2.53491211 132.65673828 -0.51147461 131.06689453 C8.86558935 123.01979117 12.82305266 114.23645361 14.21118164 102.08642578 C14.6599045 93.19250855 12.14229079 85.98194388 6.36352539 79.19189453 C5.53852539 78.51126953 4.71352539 77.83064453 3.86352539 77.12939453 C3.07977539 76.40751953 2.29602539 75.68564453 1.48852539 74.94189453 C-4.24474695 70.98320648 -10.88463136 70.73516123 -17.63647461 70.19189453 C-48.50768691 67.33877427 -79.03374782 56.58986626 -99.51147461 32.21923828 C-108.6730079 20.43697792 -108.6730079 20.43697792 -108.13647461 13.12939453 C-107.47647461 13.12939453 -106.81647461 13.12939453 -106.13647461 13.12939453 C-106.13647461 12.46939453 -106.13647461 11.80939453 -106.13647461 11.12939453 C-94.43647747 11.10626081 -82.73648574 11.08847417 -71.03647041 11.07758236 C-65.6041394 11.0723558 -60.17182399 11.06526223 -54.73950195 11.05395508 C-49.5005363 11.04311819 -44.2615857 11.03711598 -39.02260971 11.03451729 C-37.02025999 11.03266449 -35.01791112 11.02904665 -33.01556778 11.02366447 C-30.21877489 11.01644344 -27.42204479 11.01540404 -24.62524414 11.01586914 C-23.37368027 11.01047623 -23.37368027 11.01047623 -22.09683228 11.00497437 C-16.36457893 11.01534237 -16.36457893 11.01534237 -14.13647461 12.12939453 C-13.52320601 14.80547568 -13.01316306 17.42455138 -12.57397461 20.12939453 C-12.15650203 25.02486083 -12.15650203 25.02486083 -10.13647461 29.12939453 C-10.14171143 28.41283691 -10.14694824 27.6962793 -10.15234375 26.95800781 C-10.17308128 23.72347891 -10.18612445 20.48896397 -10.19897461 17.25439453 C-10.20735352 16.12646484 -10.21573242 14.99853516 -10.22436523 13.83642578 C-10.22758789 12.76005859 -10.23081055 11.68369141 -10.23413086 10.57470703 C-10.23936768 9.57971191 -10.24460449 8.5847168 -10.25 7.55957031 C-10.13647461 5.12939453 -10.13647461 5.12939453 -9.13647461 3.12939453 C-8.47647461 3.12939453 -7.81647461 3.12939453 -7.13647461 3.12939453 C-7.13647461 2.46939453 -7.13647461 1.80939453 -7.13647461 1.12939453 C-4.60140924 -0.13813815 -2.83752247 0.00238685 0 0 Z M-10.13647461 32.12939453 C-9.13647461 35.12939453 -9.13647461 35.12939453 -9.13647461 35.12939453 Z " fill="#FFF" transform="translate(119.136474609375,165.87060546875)"/>
<path d="M0 0 C0.99 0 1.98 0 3 0 C2.85691406 1.77503906 2.85691406 1.77503906 2.7109375 3.5859375 C1.78260186 16.22414372 1.69878475 27.02926206 9 38 C10.79300231 39.80044215 12.59743497 41.34225507 14.64453125 42.84375 C15.31548828 43.41609375 15.31548828 43.41609375 16 44 C16 44.66 16 45.32 16 46 C17.05380859 46.37705078 17.05380859 46.37705078 18.12890625 46.76171875 C25.6703086 50.01426915 33.02619751 55.35807543 39 61 C39 61.66 39 62.32 39 63 C39.66 63 40.32 63 41 63 C45.83329061 67.94099625 48.20117997 73.4388363 50 80 C50.33 80.99 50.66 81.98 51 83 C51.71395034 93.10064168 51.01209808 101.54291166 47 111 C46.34 111 45.68 111 45 111 C44.835 111.825 44.67 112.65 44.5 113.5 C39.08623609 126.13211578 23.93880596 132.53472687 11.9375 137.48828125 C3.10192529 140.97499423 -6.71290474 144.05292906 -16.0625 141 C-16.701875 140.67 -17.34125 140.34 -18 140 C-18 139.34 -18 138.68 -18 138 C-18.76828125 137.77054688 -19.5365625 137.54109375 -20.328125 137.3046875 C-23.61568047 135.69936071 -24.24904775 134.40955136 -25.75 131.125 C-26.15734375 130.26132813 -26.5646875 129.39765625 -26.984375 128.5078125 C-28.72229157 124.21649544 -29.15848778 120.6419559 -29.1875 116 C-29.20167969 114.96875 -29.21585938 113.9375 -29.23046875 112.875 C-29.00073557 110.00917594 -28.58284858 108.3770498 -27 106 C-23.78201336 104.79325501 -20.63708996 105.00464598 -17.25 105.0625 C-8.17979614 105.12948821 -0.39814347 102.18028056 8 99 C8.99 98.67 9.98 98.34 11 98 C11.495 96.515 11.495 96.515 12 95 C12.66 94.34 13.32 93.68 14 93 C15.9599837 87.21804809 16.42907348 83.80865397 14 78 C11.20486766 72.9822323 7.45966374 69.54990853 3.1171875 65.87109375 C-6.36366114 57.49226257 -13.12990113 47.26756467 -14.3359375 34.421875 C-14.46366838 22.41517242 -12.020957 12.2813931 -4 3 C-3.34 3 -2.68 3 -2 3 C-1.67 2.34 -1.34 1.68 -1 1 C-0.67 0.67 -0.34 0.34 0 0 Z " fill="#FFF" transform="translate(261,18)"/>
<path d="M0 0 C2.475 0.495 2.475 0.495 5 1 C5 1.66 5 2.32 5 3 C5.66 3 6.32 3 7 3 C7 3.66 7 4.32 7 5 C7.66 5 8.32 5 9 5 C15.1317667 13.22947635 19.1488934 23.6599594 18 34 C15.98637912 46.56715173 10.16980597 58.05118614 0 66 C-0.66 66 -1.32 66 -2 66 C-2.495 67.485 -2.495 67.485 -3 69 C-4.4375 70.6875 -4.4375 70.6875 -6 72 C-6.66 72 -7.32 72 -8 72 C-8.68346682 73.65984798 -9.34588315 75.32836805 -10 77 C-10.37125 77.94875 -10.7425 78.8975 -11.125 79.875 C-12.51903238 84.85368708 -12.76658162 88.40295495 -10.5 93.125 C-5.68980809 98.65672069 -0.12789781 101.40236773 7 103 C7.75023437 103.18433594 8.50046875 103.36867188 9.2734375 103.55859375 C13.92893102 104.62333596 18.09526438 105.05344346 22.875 104.875 C27.67319277 104.76656627 27.67319277 104.76656627 30.625 106.875 C33.64009031 111.53468503 33.52932104 115.5427746 33 121 C30.96690817 129.50413269 27.42500083 135.88238578 20.25 140.9375 C8.24263061 144.86298615 -4.93179139 139.34522767 -15.984375 134.54296875 C-30.15295436 127.29350133 -41.47538537 117.19269023 -47 102 C-47.6875 98.75 -47.6875 98.75 -48 95 C-48.07605469 94.19820313 -48.15210938 93.39640625 -48.23046875 92.5703125 C-48.82566879 81.47063603 -44.52253058 72.13200624 -37.6484375 63.609375 C-36 62 -36 62 -33 61 C-33 60.34 -33 59.68 -33 59 C-31.56640625 57.703125 -31.56640625 57.703125 -29.5625 56.25 C-28.83289063 55.72019531 -28.10328125 55.19039062 -27.3515625 54.64453125 C-25.06534963 53.04570132 -22.7605662 51.48221927 -20.4375 49.9375 C-19.68597656 49.43605469 -18.93445313 48.93460938 -18.16015625 48.41796875 C-16.82838847 47.54377037 -15.48411864 46.68789714 -14.12109375 45.86328125 C-6.24206808 40.83974139 -1.50378235 32.93010943 0.57421875 23.9296875 C1.7343063 15.94743368 1.24545358 7.93976656 0 0 Z " fill="#FFF" transform="translate(85,18)"/>
<path d="M0 0 C9.76150988 -0.02312446 19.5230133 -0.04091561 29.28454494 -0.05181217 C33.81674094 -0.05704078 38.34891827 -0.06413801 42.88110352 -0.07543945 C47.2512283 -0.08626914 51.62133508 -0.09227701 55.99147224 -0.09487724 C57.66250963 -0.09673135 59.33354597 -0.10035168 61.00457573 -0.10573006 C63.33697551 -0.11294159 65.66929993 -0.1139909 68.00170898 -0.11352539 C68.6994191 -0.11712067 69.39712921 -0.12071594 70.11598206 -0.12442017 C74.88594784 -0.11405216 74.88594784 -0.11405216 76 1 C76.97329635 15.67760387 76.86030284 30.75253692 73 45 C72.82839355 45.6585498 72.65678711 46.31709961 72.47998047 46.99560547 C69.88863001 56.77974816 66.17171046 65.29602619 61 74 C60.01 74 59.02 74 58 74 C56.50193944 71.00387888 56.47599107 67.79218366 56.125 64.5 C55.31222531 57.4178166 54.22221585 50.4444317 51 44 C50.90327168 42.02275939 50.87020097 40.0420994 50.875 38.0625 C50.87113281 36.47115234 50.87113281 36.47115234 50.8671875 34.84765625 C51 32 51 32 52 29 C51.34 29 50.68 29 50 29 C49.9175 30.216875 49.835 31.43375 49.75 32.6875 C48.85308881 40.59997676 46.01278884 48.01280007 43.47265625 55.51953125 C43.07663208 56.6943103 43.07663208 56.6943103 42.67260742 57.89282227 C42.15590344 59.41984305 41.63423971 60.9451982 41.10668945 62.46850586 C39.60317768 66.88473045 38.42997126 71.27185961 37.46484375 75.83544922 C36.77095328 79.06655895 35.93191521 82.24964424 35.0625 85.4375 C34.58490234 87.22994141 34.58490234 87.22994141 34.09765625 89.05859375 C33 92 33 92 30 94 C29.67 92.02 29.34 90.04 29 88 C28.34 88 27.68 88 27 88 C26.81824219 87.23816406 26.63648438 86.47632813 26.44921875 85.69140625 C24.61087168 78.14004214 22.49280113 70.85640293 19.6875 63.609375 C16.9256425 56.26828957 14.68536923 48.73997683 12.31640625 41.265625 C10.3545944 35.10936693 8.30687649 29.03437183 6 23 C5.09782241 20.38381406 4.23418079 17.75557822 3.375 15.125 C1.91150366 10.47413259 1.91150366 10.47413259 0 6 C-0.039992 4.00039988 -0.04346799 1.99952758 0 0 Z " fill="#FFF" transform="translate(137,55)"/>
<path d="M0 0 C0.98976837 -0.00281982 1.97953674 -0.00563965 2.9992981 -0.00854492 C4.62641724 -0.00550858 4.62641724 -0.00550858 6.28640747 -0.00241089 C7.42973541 -0.00416321 8.57306335 -0.00591553 9.7510376 -0.00772095 C13.54165146 -0.0121327 17.33221889 -0.00920343 21.12283325 -0.00582886 C23.75215667 -0.00650218 26.38148002 -0.00747245 29.01080322 -0.00872803 C34.52715561 -0.01054795 40.04349462 -0.00814859 45.55984497 -0.00338745 C51.93262872 0.00204944 58.30538044 0.00029597 64.67816341 -0.00521386 C70.81147935 -0.010304 76.94478112 -0.00975816 83.0780983 -0.00683212 C85.68642303 -0.00616452 88.29474858 -0.00698549 90.90307236 -0.00931168 C94.54910194 -0.01184907 98.19506997 -0.00798189 101.84109497 -0.00241089 C102.9217926 -0.00443512 104.00249023 -0.00645935 105.11593628 -0.00854492 C106.60904831 -0.00431519 106.60904831 -0.00431519 108.13232422 0 C109.42482495 0.00056554 109.42482495 0.00056554 110.74343681 0.0011425 C113.30959739 0.13296574 115.68934595 0.56279016 118.19314575 1.12698364 C118.19314575 1.45698364 118.19314575 1.78698364 118.19314575 2.12698364 C117.56108027 2.129372 116.92901478 2.13176035 116.27779579 2.13422108 C100.91345884 2.19330189 85.54930432 2.26880711 70.18514442 2.36269855 C62.75520875 2.40770539 55.32532153 2.44710859 47.89529419 2.47341919 C41.42089695 2.4963599 34.94665243 2.52971345 28.47237623 2.5756852 C25.04279571 2.59967087 21.61336693 2.61836442 18.18370438 2.62459755 C14.35937092 2.63174275 10.53541872 2.66213094 6.71121216 2.6946106 C5.56826187 2.69317551 4.42531158 2.69174042 3.24772644 2.69026184 C2.21003616 2.70279999 1.17234589 2.71533813 0.10321045 2.72825623 C-0.80199026 2.73286519 -1.70719097 2.73747416 -2.63982201 2.74222279 C-3.35494265 2.86919387 -4.07006329 2.99616495 -4.80685425 3.12698364 C-5.79685425 4.61198364 -5.79685425 4.61198364 -6.80685425 6.12698364 C-7.79685425 5.79698364 -8.78685425 5.46698364 -9.80685425 5.12698364 C-8.99435425 3.18948364 -8.99435425 3.18948364 -7.80685425 1.12698364 C-4.88918746 0.15442805 -3.03580091 0.00132949 0 0 Z " fill="#FFF" transform="translate(200.80685424804688,165.87301635742188)"/>
<path d="M0 0 C0.99 0 1.98 0 3 0 C2.9278125 1.22976562 2.855625 2.45953125 2.78125 3.7265625 C2.6874105 5.35936986 2.59366549 6.99218265 2.5 8.625 C2.45230469 9.43324219 2.40460938 10.24148437 2.35546875 11.07421875 C2.10986222 15.38987631 1.94401342 19.67503669 2 24 C-0.20914 20.68629 -0.22481553 19.6553979 -0.125 15.8125 C-0.10695313 14.91144531 -0.08890625 14.01039062 -0.0703125 13.08203125 C-0.04710937 12.39496094 -0.02390625 11.70789062 0 11 C-0.99 11 -1.98 11 -3 11 C-3.33 10.67 -3.66 10.34 -4 10 C-6.05396726 10.40929986 -6.05396726 10.40929986 -8 11 C-6.87548273 8.0280615 -5.77706209 5.66559313 -4 3 C-3.34 3 -2.68 3 -2 3 C-1.67 2.34 -1.34 1.68 -1 1 C-0.67 0.67 -0.34 0.34 0 0 Z " fill="#FFF" transform="translate(261,18)"/>
<path d="M0 0 C0.33 0 0.66 0 1 0 C1.33859902 6.17096719 0.08339806 11.49333809 -1.5 17.4375 C-1.73847656 18.35982422 -1.97695312 19.28214844 -2.22265625 20.23242188 C-2.80761228 22.49035216 -3.40020296 24.74597547 -4 27 C-3.34 27 -2.68 27 -2 27 C-3.09068668 30.77545388 -3.9083091 33.47043472 -7 36 C-7.43428819 29.43023606 -5.81699356 23.7368144 -4.0625 17.4375 C-1.64207221 8.80456073 -1.64207221 8.80456073 0 0 Z " fill="#FFF" transform="translate(188,240)"/>
<path d="M0 0 C2.475 0.495 2.475 0.495 5 1 C5 1.66 5 2.32 5 3 C5.66 3 6.32 3 7 3 C7 3.66 7 4.32 7 5 C7.66 5 8.32 5 9 5 C8 7 8 7 6 10 C5.34 10 4.68 10 4 10 C4 11.32 4 12.64 4 14 C3.34 14 2.68 14 2 14 C1.66468585 12.04200486 1.33180857 10.08359226 1 8.125 C0.814375 7.03445312 0.62875 5.94390625 0.4375 4.8203125 C0 2 0 2 0 0 Z " fill="#FFF" transform="translate(85,18)"/>
<path d="M0 0 C0.66 0 1.32 0 2 0 C1.68160156 0.66 1.36320312 1.32 1.03515625 2 C-0.22975588 5.66585856 -0.41737709 9.16309184 -0.5625 13 C-0.75374034 17.41073467 -0.98057818 21.68641345 -2 26 C-2.33 26 -2.66 26 -3 26 C-3.08720919 22.41682042 -3.14046112 18.83391433 -3.1875 15.25 C-3.21263672 14.23421875 -3.23777344 13.2184375 -3.26367188 12.171875 C-3.27333984 11.1921875 -3.28300781 10.2125 -3.29296875 9.203125 C-3.3086792 8.30239258 -3.32438965 7.40166016 -3.34057617 6.47363281 C-2.93305636 3.51378279 -2.05379533 2.14086551 0 0 Z " fill="#FFF" transform="translate(93,312)"/>
<path d="M0 0 C0.66 0.33 1.32 0.66 2 1 C-1.45877212 6.86487447 -6.11321868 11.30117181 -11 16 C-11.99 15.34 -12.98 14.68 -14 14 C-13.40832031 13.57589844 -12.81664063 13.15179688 -12.20703125 12.71484375 C-7.08166998 8.91053808 -3.41398103 5.39629259 0 0 Z " fill="#FFF" transform="translate(81,53)"/>
<path d="M0 0 C0.99 0 1.98 0 3 0 C1.68775452 3.93673644 0.08089673 6.22719294 -3 9 C-3.66 8.67 -4.32 8.34 -5 8 C-4.25 3.25 -4.25 3.25 -2 1 C-1.34 1 -0.68 1 0 1 C0 0.67 0 0.34 0 0 Z " fill="#FFF" transform="translate(111,148)"/>
<path d="M0 0 C0.66 0.33 1.32 0.66 2 1 C1.06027344 1.72316406 1.06027344 1.72316406 0.1015625 2.4609375 C-0.71570313 3.09257813 -1.53296875 3.72421875 -2.375 4.375 C-3.18710937 5.00148438 -3.99921875 5.62796875 -4.8359375 6.2734375 C-7.04223195 7.96773494 -7.04223195 7.96773494 -9 10 C-11.125 10.625 -11.125 10.625 -13 11 C-13 10.34 -13 9.68 -13 9 C-9.14450335 5.56545087 -4.61359004 2.30679502 0 0 Z " fill="#FFF" transform="translate(65,68)"/>
<path d="M0 0 C1.0528418 0.07831055 1.0528418 0.07831055 2.12695312 0.15820312 C3.85588054 0.28757865 5.58425355 0.42432531 7.3125 0.5625 C7.3125 0.8925 7.3125 1.2225 7.3125 1.5625 C5.72308594 1.61857422 5.72308594 1.61857422 4.1015625 1.67578125 C2.71350576 1.74143258 1.32548651 1.80788021 -0.0625 1.875 C-0.76117188 1.89755859 -1.45984375 1.92011719 -2.1796875 1.94335938 C-4.46038941 2.03234296 -4.46038941 2.03234296 -7.6875 2.5625 C-8.6775 4.0475 -8.6775 4.0475 -9.6875 5.5625 C-10.6775 5.2325 -11.6675 4.9025 -12.6875 4.5625 C-11.875 2.625 -11.875 2.625 -10.6875 0.5625 C-6.99441024 -0.66852992 -3.80699288 -0.30925152 0 0 Z " fill="#FFF" transform="translate(203.6875,166.4375)"/>
<path d="M0 0 C0.66 0.33 1.32 0.66 2 1 C1.01 2.32 0.02 3.64 -1 5 C-0.34 5 0.32 5 1 5 C0.67 5.99 0.34 6.98 0 8 C-3.5625 9.1875 -3.5625 9.1875 -7 10 C-5.33248852 6.05860922 -2.77289351 3.2107188 0 0 Z " fill="#FFF" transform="translate(50,79)"/>
<path d="M0 0 C2.31 0.33 4.62 0.66 7 1 C4.64722731 3.72426311 2.37503669 4.8141763 -1 6 C-1.33 5.01 -1.66 4.02 -2 3 C-1.34 2.01 -0.68 1.02 0 0 Z " fill="#FFF" transform="translate(267,202)"/>
<path d="M0 0 C0.33 0.99 0.66 1.98 1 3 C3.01508358 3.73323796 3.01508358 3.73323796 5 4 C4.01 4.99 3.02 5.98 2 7 C0.68 6.34 -0.64 5.68 -2 5 C-1.34 3.35 -0.68 1.7 0 0 Z " fill="#FFF" transform="translate(187,262)"/>
<path d="M0 0 C1.98 0 3.96 0 6 0 C3.47211993 2.79872437 1.79588866 4.45773019 -2 5 C-1.34 3.35 -0.68 1.7 0 0 Z " fill="#FFF" transform="translate(133,337)"/>
<path d="M0 0 C0.66 0.33 1.32 0.66 2 1 C0.02 3.31 -1.96 5.62 -4 8 C-4.99 7.34 -5.98 6.68 -7 6 C-4.69 4.02 -2.38 2.04 0 0 Z " fill="#FFF" transform="translate(74,61)"/>
<path d="M0 0 C0.99 0.33 1.98 0.66 3 1 C2.67 2.65 2.34 4.3 2 6 C1.01 6 0.02 6 -1 6 C-1.042721 4.33388095 -1.04063832 2.66617115 -1 1 C-0.67 0.67 -0.34 0.34 0 0 Z " fill="#FFF" transform="translate(197,122)"/>
<path d="M0 0 C0.66 0 1.32 0 2 0 C1.67 0.598125 1.34 1.19625 1 1.8125 C-0.20787988 4.05386471 -0.20787988 4.05386471 0 7 C-1.32 7.33 -2.64 7.66 -4 8 C-2.87548273 5.0280615 -1.77706209 2.66559313 0 0 Z " fill="#FFF" transform="translate(257,21)"/>
</svg>
