<?xml version="1.0" encoding="UTF-8"?>
<svg version="1.1" xmlns="http://www.w3.org/2000/svg" width="2016" height="2112">
<path d="M0 0 C665.28 0 1330.56 0 2016 0 C2016 696.96 2016 1393.92 2016 2112 C1350.72 2112 685.44 2112 0 2112 C0 1415.04 0 718.08 0 0 Z " fill="#FEFEFD" transform="translate(0,0)"/>
<path d="M0 0 C1.17041523 3.51124569 1.51681717 6.94696063 1.90234375 10.60546875 C2.02628258 11.74076775 2.02628258 11.74076775 2.15272522 12.89900208 C2.41743569 15.328175 2.67771725 17.75779557 2.9375 20.1875 C3.27817329 23.34785027 3.62080004 26.50798367 3.96484375 29.66796875 C4.05111526 30.46132126 4.13738678 31.25467377 4.22627258 32.07206726 C4.75677414 36.90811116 5.3313868 41.73617732 5.9453125 46.5625 C6.82176538 53.45872124 7.62115412 60.36189815 8.40234375 67.26953125 C8.52679367 68.36577316 8.65124359 69.46201508 8.77946472 70.59147644 C9.29536419 75.13697515 9.81095689 79.68249507 10.32006836 84.22875977 C11.8147019 97.55598864 13.46638475 110.81454882 15.67529297 124.04312134 C17.94612766 137.72852855 19.86103325 151.47772111 21.89282227 165.20019531 C26.1338327 193.83330298 30.44728555 222.48757187 36.0078125 250.8984375 C38.18744691 262.04509466 40.22586985 273.2184305 42.26953125 284.390625 C47.67193607 314.27153026 47.67193607 314.27153026 53.82055664 344.00439453 C55.22815519 350.34763302 56.54787389 356.70062407 57.7890625 363.078125 C61.61601373 382.70579137 65.79080519 402.18761857 70.58691406 421.60400391 C72.69896023 430.20256216 74.62888415 438.75967693 75.99641418 447.51231384 C76.59968463 451.26044712 77.49758889 454.51936326 79 458 C79.4784408 460.22073967 79.91154008 462.45147196 80.3125 464.6875 C81.35575568 470.22081974 82.67327083 475.59605042 84.25 481 C86.43489794 488.54190687 88.19097337 496.14731258 89.87408447 503.8157959 C92.53156324 515.9189228 95.50981515 527.86743876 98.87597656 539.79760742 C101.57318415 549.37424596 104.09942699 558.98584344 106.5625 568.625 C106.94496652 570.11849482 107.3274534 571.61198443 107.70996094 573.10546875 C109.13426066 578.67202322 110.55395242 584.23972522 111.96533203 589.80957031 C115.16723802 602.4426382 118.50363015 614.98752863 122.37329102 627.43383789 C124.56183922 634.48555446 126.59287796 641.57169115 128.5625 648.6875 C130.87833713 657.04814074 133.27878457 665.37426631 135.79882812 673.67553711 C137.85855003 680.47605225 139.81831975 687.30267885 141.73266602 694.14550781 C146.23007177 710.08658276 151.47411599 725.82536689 156.49414062 741.60742188 C157.3431544 744.27711981 158.19116822 746.94713383 159.0390625 749.6171875 C159.4188475 750.80971634 159.4188475 750.80971634 159.80630493 752.02633667 C161.09918856 756.09972886 162.35983256 760.18042977 163.58203125 764.27563477 C164.55260825 767.5273693 165.55113331 770.7609728 166.6484375 773.97265625 C166.92864746 774.79991211 167.20885742 775.62716797 167.49755859 776.47949219 C167.78711426 777.33188477 168.07666992 778.18427734 168.375 779.0625 C170.52108023 785.42349523 172.55607066 791.78824362 174.375 798.25 C176.5904327 806.01548149 179.31397168 813.56201122 182.08740234 821.14331055 C185.39230565 830.21692852 188.52626972 839.34177289 191.62658691 848.48693848 C202.84819538 881.57774448 214.33026538 914.58509077 226.92578125 947.1809082 C228.34969636 950.91771452 229.70607971 954.6776175 231.06420898 958.4387207 C232.44266211 962.21157531 233.90444812 965.94979389 235.375 969.6875 C237.61108154 975.39947066 239.80481169 981.12366823 241.9375 986.875 C244.51703117 993.81672918 247.24674223 1000.69411216 250.02124023 1007.56005859 C251.85383456 1012.10180763 253.63843252 1016.65793466 255.3828125 1021.234375 C258.06492364 1028.23138676 260.92664588 1035.14752449 263.8125 1042.0625 C267.21833548 1050.25049103 270.60686618 1058.44331691 273.875 1066.6875 C277.25826373 1075.20294841 280.71424688 1083.68811632 284.19293213 1092.16494751 C284.8037612 1093.65426086 285.41361946 1095.14397283 286.0223999 1096.63412476 C289.37121137 1104.8276617 292.83894027 1112.92684865 296.59277344 1120.94555664 C298.87958726 1125.90918046 300.96273297 1130.9551311 303.0625 1136 C308.67314635 1149.37238299 314.59509178 1162.59231739 320.56201172 1175.80810547 C322.4741486 1180.052465 324.36457113 1184.30622722 326.25 1188.5625 C327.18904192 1190.67612705 328.12865986 1192.78949728 329.06835938 1194.90283203 C329.69562577 1196.31483894 330.32190934 1197.72728281 330.94726562 1199.14013672 C336.72141031 1212.17246228 342.76886283 1225.07097211 348.85571289 1237.95922852 C352.56758029 1245.82042283 356.25386634 1253.69165406 359.89282227 1261.58691406 C365.4030456 1273.53923032 371.05957114 1285.41299871 376.8125 1297.25 C377.16335663 1297.97226776 377.51421326 1298.69453552 377.8757019 1299.43869019 C381.58779159 1307.07402556 385.33578622 1314.68974109 389.14453125 1322.27734375 C392.47600981 1328.91499646 395.69436002 1335.60116858 398.875 1342.3125 C402.71768638 1350.36281054 406.66050554 1358.33318478 410.86328125 1366.20117188 C413.61539623 1371.35708729 416.31483051 1376.53728408 418.98046875 1381.73828125 C419.3355249 1382.43094589 419.69058105 1383.12361053 420.05639648 1383.83726501 C420.79062708 1385.26991832 421.52481842 1386.70259174 422.25897217 1388.13528442 C428.0435 1399.42009626 433.91507722 1410.6385187 440.04125977 1421.74291992 C442.74370684 1426.65386862 445.34542208 1431.59194864 447.8125 1436.625 C456.10202474 1453.51782747 465.32644882 1469.98255479 474.36572266 1486.48193359 C479.03208773 1495.01751246 483.59690882 1503.60642579 488.15939331 1512.19781494 C492.75150738 1520.84280875 497.3981149 1529.45194247 502.25830078 1537.95019531 C505 1542.79102673 505 1542.79102673 505 1545 C500.92660093 1544.49082512 497.87306723 1543.00259496 494.29321289 1541.1328125 C492.18007022 1540.08895196 490.08356575 1539.21820189 487.8828125 1538.37890625 C478.8237233 1534.79767659 469.99550928 1530.65440051 461.11938477 1526.64697266 C449.83742129 1521.5574503 438.50415772 1516.62304475 427.07809448 1511.86547852 C424.19052479 1510.66287221 421.30645956 1509.45193317 418.421875 1508.2421875 C416.53148886 1507.45255292 414.6408686 1506.66347856 412.75 1505.875 C411.7391333 1505.45323486 410.7282666 1505.03146973 409.68676758 1504.59692383 C402.98898618 1501.80925641 396.27079062 1499.08467482 389.51171875 1496.44921875 C386.6010222 1495.2480303 383.7558054 1493.97628731 380.8984375 1492.65625 C374.66735391 1489.80498826 368.32326277 1487.29389963 361.9375 1484.8125 C360.72739258 1484.33981689 359.51728516 1483.86713379 358.27050781 1483.38012695 C337.23588572 1475.15088464 337.23588572 1475.15088464 316.1015625 1467.18359375 C315.37549805 1466.91522705 314.64943359 1466.64686035 313.90136719 1466.37036133 C312.05845331 1465.69247987 310.21295675 1465.02163018 308.3671875 1464.3515625 C305.84867549 1463.34065165 303.5461795 1462.28180909 301.1484375 1461.0390625 C296.81625337 1458.82778942 292.35769967 1457.28345492 287.75 1455.75 C280.80614487 1453.38384545 273.97562582 1450.84329273 267.1875 1448.0625 C258.97782814 1444.71065101 250.67388471 1441.73299658 242.28588867 1438.85961914 C236.82352774 1436.98724397 231.39405116 1435.06069611 226 1433 C218.81776262 1430.2639979 211.56856631 1427.73997515 204.3034668 1425.23339844 C197.92855793 1423.03008181 191.57516485 1420.77396557 185.23120117 1418.4831543 C168.6733788 1412.51060836 151.99364753 1406.93920975 135.28173828 1401.41650391 C128.97536015 1399.33172886 122.67542286 1397.22769459 116.375 1395.125 C114.19012287 1394.39707928 112.00522787 1393.66921219 109.8203125 1392.94140625 C106.35539016 1391.786618 102.89152137 1390.62885635 99.4296875 1389.46484375 C90.40728379 1386.4344499 81.36181912 1383.47544692 72.30749512 1380.54196167 C70.96259615 1380.10599657 69.61794017 1379.66928094 68.27355957 1379.23171997 C60.28134345 1376.6321717 52.26537867 1374.16909083 44.16723633 1371.91723633 C40.89075685 1370.96836302 37.66672852 1369.91069097 34.4375 1368.8125 C16.7966678 1362.85894811 -1.02566021 1357.46213518 -18.97509766 1352.52172852 C-25.77011314 1350.64565452 -32.51641356 1348.6476563 -39.25 1346.5625 C-49.46263463 1343.40204533 -59.74839759 1340.54072494 -70.06738281 1337.75219727 C-75.71339938 1336.21924814 -81.2847467 1334.60893357 -86.81787109 1332.71044922 C-91.03203633 1331.33841735 -95.33221412 1330.28241658 -99.625 1329.1875 C-101.10540771 1328.80501099 -101.10540771 1328.80501099 -102.61572266 1328.41479492 C-105.7430534 1327.60687229 -108.87138341 1326.80292785 -112 1326 C-116.12594308 1324.94111838 -120.25077833 1323.87806421 -124.375 1322.8125 C-125.30650879 1322.57490967 -126.23801758 1322.33731934 -127.19775391 1322.0925293 C-132.2063713 1320.79804031 -137.09997311 1319.33256845 -141.99414062 1317.65844727 C-144.65137654 1316.78617788 -147.33024195 1316.15455053 -150.0625 1315.5625 C-155.01578646 1314.45536263 -159.95122802 1313.29389594 -164.875 1312.0625 C-166.06867187 1311.76472656 -167.26234375 1311.46695312 -168.4921875 1311.16015625 C-176.08903418 1309.22623075 -183.65304951 1307.16223521 -191.22607422 1305.13745117 C-216.69812124 1298.36142727 -242.3676518 1292.40686154 -268.02978516 1286.40087891 C-271.5678186 1285.57235868 -275.10443009 1284.73867441 -278.63818359 1283.89208984 C-289.32934383 1281.33490354 -300.06908797 1279.03309609 -310.82550049 1276.76745605 C-316.03566584 1275.66979978 -321.24450544 1274.56590278 -326.453125 1273.4609375 C-327.46851349 1273.24554321 -328.48390198 1273.03014893 -329.53005981 1272.80822754 C-337.23930426 1271.16940414 -344.93576325 1269.48047761 -352.625 1267.75 C-371.61224587 1263.48786023 -390.67255096 1259.58548356 -409.79174805 1255.96240234 C-415.91713068 1254.79824427 -422.03250649 1253.59474186 -428.140625 1252.34375 C-443.76622095 1249.15003422 -459.39270174 1246.18453397 -475.13684082 1243.6335144 C-485.58734383 1241.93900908 -495.99002478 1240.08372704 -506.38192749 1238.06118774 C-537.33723936 1232.04161968 -568.53588423 1227.16838065 -599.77734375 1222.88671875 C-603.90791936 1222.31481395 -608.02376394 1221.67858083 -612.13951111 1221.01048279 C-626.01285034 1218.7654561 -639.94255634 1216.95980429 -653.875 1215.125 C-656.55565643 1214.77049408 -659.2362105 1214.415218 -661.91674805 1214.05981445 C-663.25871243 1213.88190971 -664.60067715 1213.70400748 -665.94264221 1213.52610779 C-666.6037607 1213.43846098 -667.26487919 1213.35081417 -667.94603157 1213.2605114 C-669.9317175 1212.99737766 -671.91745014 1212.73459647 -673.90318298 1212.47181702 C-683.79112141 1211.16286943 -693.67642945 1209.83543682 -703.55990601 1208.49325562 C-708.48427896 1207.82484636 -713.40916152 1207.16020185 -718.33398438 1206.49511719 C-720.69733017 1206.1759333 -723.06061609 1205.85630558 -725.42382812 1205.53613281 C-735.95187836 1204.11385523 -746.47232393 1202.78333071 -757.04949951 1201.78239441 C-762.59459297 1201.25512917 -768.12649753 1200.64759476 -773.65922546 1200.00436401 C-791.02257659 1198.0006314 -808.42058804 1196.52118699 -825.8369751 1195.07092285 C-832.10485928 1194.5484771 -838.3722834 1194.02057544 -844.63958168 1193.49115372 C-846.79744954 1193.3095698 -848.955493 1193.13020601 -851.11357117 1192.95114136 C-857.43122214 1192.42038632 -863.71457783 1191.8264019 -870 1191 C-872.58488134 1190.85150682 -875.16355096 1190.72767679 -877.75 1190.625 C-885.03215532 1190.28912182 -892.27462815 1189.72398273 -899.53393555 1189.06176758 C-968.44674825 1182.81592138 -1037.84543479 1180.93768506 -1107 1180 C-1105.72429396 1177.20092329 -1104.4108322 1175.16631168 -1102.22192383 1173.01074219 C-1101.38513847 1172.17902496 -1101.38513847 1172.17902496 -1100.53144836 1171.33050537 C-1099.62836189 1170.44760834 -1099.62836189 1170.44760834 -1098.70703125 1169.546875 C-1098.08277756 1168.92782288 -1097.45852386 1168.30877075 -1096.81535339 1167.67095947 C-1094.8191003 1165.69248853 -1092.816312 1163.72081257 -1090.8125 1161.75 C-1088.19062918 1159.164859 -1085.5719482 1156.57654992 -1082.95703125 1153.984375 C-1082.32580353 1153.35873657 -1081.69457581 1152.73309814 -1081.04421997 1152.08850098 C-1077.48283277 1148.53880836 -1074.09945022 1144.91444054 -1070.8503418 1141.07519531 C-1065.6159259 1135.20469325 -1059.84413797 1129.79903914 -1054.25195312 1124.27246094 C-1048.54938982 1118.63083616 -1042.89817161 1113.03068746 -1037.6953125 1106.91796875 C-1033.40109723 1102.05976668 -1028.64631836 1097.61241128 -1024.02734375 1093.06640625 C-1019.7347854 1088.81518875 -1015.62793015 1084.49949355 -1011.69335938 1079.91601562 C-1008.78343472 1076.62347112 -1005.63614119 1073.57507362 -1002.5 1070.5 C-997.99185274 1066.04038675 -993.54917448 1061.59307438 -989.4921875 1056.7109375 C-987.44087176 1054.35890532 -985.22061928 1052.19006964 -983 1050 C-979.8717702 1046.89907487 -976.74805565 1043.79363507 -973.625 1040.6875 C-972.3875 1039.46256836 -972.3875 1039.46256836 -971.125 1038.21289062 C-966.66287926 1033.76847672 -962.39390091 1029.27214217 -958.38818359 1024.40942383 C-957.93008301 1023.94431396 -957.47198242 1023.4792041 -957 1023 C-956.34 1023 -955.68 1023 -955 1023 C-955 1022.34 -955 1021.68 -955 1021 C-954.34 1021 -953.68 1021 -953 1021 C-952.75016357 1020.4234668 -952.50032715 1019.84693359 -952.24291992 1019.25292969 C-950.82641968 1016.68536649 -949.21078033 1015.00010232 -947.11328125 1012.953125 C-946.33919922 1012.19 -945.56511719 1011.426875 -944.76757812 1010.640625 C-943.95740234 1009.85171875 -943.14722656 1009.0628125 -942.3125 1008.25 C-935.79090184 1001.89985196 -935.79090184 1001.89985196 -929.66796875 995.171875 C-924.28923436 988.90330223 -918.27156367 983.21690015 -912.39746094 977.41796875 C-905.27194441 970.43701186 -905.27194441 970.43701186 -898.5625 963.0625 C-892.88638159 956.41058399 -886.46672482 950.4143219 -880.25195312 944.27246094 C-873.93943426 938.02739868 -867.72278112 931.79974093 -862 925 C-860.10278972 922.77219166 -858.16752987 920.59183786 -856.1875 918.4375 C-855.73052734 917.89287109 -855.27355469 917.34824219 -854.80273438 916.78710938 C-852.64689934 914.4916251 -851.10282946 913.04187631 -847.8613739 912.91879272 C-841.57517602 913.69752322 -835.45772857 914.85960749 -829.2890625 916.29296875 C-828.29089508 916.51957687 -827.29272766 916.746185 -826.26431274 916.97966003 C-823.04997842 917.71032378 -819.83753033 918.44894946 -816.625 919.1875 C-812.19589618 920.19658364 -807.76588751 921.20166996 -803.3359375 922.20703125 C-802.25570313 922.45279907 -801.17546875 922.69856689 -800.0625 922.95178223 C-791.80528267 924.82752944 -783.53555001 926.62887911 -775.25 928.375 C-764.11860823 930.7356607 -753.05363865 933.30060457 -742 936 C-739.56767238 936.59180495 -737.13521873 937.18309048 -734.70277405 937.77441406 C-693.96677997 947.67927333 -693.96677997 947.67927333 -677.875 951.875 C-676.88000488 952.134021 -675.88500977 952.39304199 -674.85986328 952.65991211 C-668.84654828 954.23285503 -662.85498895 955.86780999 -656.875 957.5625 C-650.57797449 959.34552873 -644.25166059 960.90387494 -637.875 962.375 C-626.98716783 964.89748128 -616.30299985 968.03023947 -605.59667969 971.22607422 C-597.86113561 973.53160964 -590.10049552 975.72430053 -582.28686523 977.74975586 C-570.1318944 980.90077118 -558.12330916 984.4746589 -546.1328125 988.19921875 C-545.01648438 988.54597656 -543.90015625 988.89273438 -542.75 989.25 C-541.81671875 989.54390625 -540.8834375 989.8378125 -539.921875 990.140625 C-537.02096642 990.9938334 -534.1002505 991.71959167 -531.16455078 992.44189453 C-527.26267251 993.44795067 -523.41654452 994.63862558 -519.5625 995.8125 C-517.78398643 996.35069767 -516.00533837 996.88845112 -514.2265625 997.42578125 C-513.34516602 997.69213379 -512.46376953 997.95848633 -511.55566406 998.23291016 C-508.53987849 999.13810678 -505.51819111 1000.02172812 -502.49487305 1000.90136719 C-494.09340582 1003.34593793 -485.74815881 1005.94925923 -477.41015625 1008.6015625 C-473.84260211 1009.7359705 -470.26817718 1010.84509001 -466.6875 1011.9375 C-462.79866009 1013.12534591 -458.92100959 1014.34295619 -455.05078125 1015.58984375 C-444.73827965 1018.90833259 -434.41790438 1022.10748275 -423.96484375 1024.95849609 C-419.82853344 1026.10500909 -416.01533924 1027.40980443 -412.09619141 1029.18212891 C-409.26680795 1030.28606957 -406.38253739 1031.06810942 -403.45703125 1031.8828125 C-396.09591267 1033.93387414 -388.89857847 1036.35466086 -381.6875 1038.875 C-379.62009527 1039.59268181 -377.55219439 1040.30892129 -375.48425293 1041.02505493 C-374.01544364 1041.53374316 -372.54677741 1042.04284465 -371.07824707 1042.55233765 C-365.15608082 1044.60543023 -359.22599258 1046.63476792 -353.29296875 1048.65625 C-352.38602768 1048.96531281 -351.47908661 1049.27437561 -350.54466248 1049.59280396 C-346.94753078 1050.81826573 -343.35024496 1052.04327167 -339.75253296 1053.26702881 C-338.0584457 1053.84340246 -336.36451835 1054.42024636 -334.67076111 1054.99758911 C-333.05011789 1055.549931 -331.42908373 1056.10112732 -329.80763245 1056.65109253 C-326.12580388 1057.9054281 -322.46110574 1059.18766446 -318.82128906 1060.55957031 C-317.85698471 1060.91953598 -317.85698471 1060.91953598 -316.87319946 1061.28677368 C-315.16930001 1061.92758231 -313.4704066 1062.58165903 -311.77197266 1063.23681641 C-308.8723968 1064.0351319 -307.70833337 1064.2270743 -305 1063 C-303.08702012 1061.4986033 -303.08702012 1061.4986033 -301.28515625 1059.578125 C-300.59873047 1058.88203125 -299.91230469 1058.1859375 -299.20507812 1057.46875 C-298.14450195 1056.37046875 -298.14450195 1056.37046875 -297.0625 1055.25 C-296.35931641 1054.53328125 -295.65613281 1053.8165625 -294.93164062 1053.078125 C-293.56255504 1051.68209397 -292.19625181 1050.28332778 -290.83300781 1048.8815918 C-287.92726316 1045.8988302 -284.97833836 1042.96107356 -282.0078125 1040.04296875 C-281.38648438 1039.43066406 -280.76515625 1038.81835938 -280.125 1038.1875 C-279.50882813 1037.58292969 -278.89265625 1036.97835938 -278.2578125 1036.35546875 C-276.42127568 1034.43949695 -274.70121113 1032.49410965 -272.97851562 1030.47851562 C-268.56739459 1025.4264146 -263.84040105 1020.7151342 -259.0859375 1015.98828125 C-258.15327057 1015.05702927 -257.22060364 1014.12577728 -256.25967407 1013.16630554 C-253.80121051 1010.71162325 -251.33976148 1008.25995694 -248.87762451 1005.80895996 C-246.37753364 1003.31912577 -243.88028865 1000.82644083 -241.3828125 998.33398438 C-236.94388924 993.90466743 -232.50219234 989.47814228 -228.05941772 985.0526886 C-226.38303928 983.3817877 -224.70817534 981.70941887 -223.03515625 980.03515625 C-221.62563886 978.62563886 -220.20983048 977.22239502 -218.7890625 975.82421875 C-218.07492187 975.11910156 -217.36078125 974.41398437 -216.625 973.6875 C-215.56152344 972.64142578 -215.56152344 972.64142578 -214.4765625 971.57421875 C-212.53430316 969.5553719 -210.71161186 967.51529403 -208.89208984 965.38989258 C-204.87371621 960.78532534 -200.59307935 956.4839623 -196.25 952.1875 C-195.43305664 951.37434326 -194.61611328 950.56118652 -193.77441406 949.72338867 C-190.31304958 946.2782266 -186.84571409 942.8390971 -183.37890625 939.39941406 C-180.83384812 936.87253492 -178.29186869 934.34258685 -175.75 931.8125 C-174.97688477 931.04768311 -174.20376953 930.28286621 -173.40722656 929.49487305 C-170.00775301 926.11062212 -166.69489914 922.70753613 -163.56835938 919.06835938 C-159.34386873 914.16382289 -154.75276126 909.64703849 -150.15625 905.09375 C-148.7380835 903.68137068 -147.31991993 902.26898839 -145.90192413 900.85643768 C-142.93933555 897.90687976 -139.97215979 894.96193688 -137.00579834 892.01617432 C-134.55418969 889.58122894 -132.10362669 887.14525184 -129.65563965 884.70666504 C-127.82931571 882.88779387 -126.00074639 881.07117348 -124.16955566 879.25720215 C-119.85960403 874.96424412 -115.73035609 870.6049643 -111.76696777 865.99182129 C-108.36001543 862.15132102 -104.67907488 858.57849776 -101.03125 854.96875 C-100.1921106 854.13339722 -99.35297119 853.29804443 -98.48840332 852.43737793 C-94.9314548 848.89663871 -91.3685388 845.36192676 -87.80615234 841.82666016 C-85.19159836 839.2302794 -82.58011816 836.63083434 -79.96875 834.03125 C-79.17376099 833.24455933 -78.37877197 832.45786865 -77.55969238 831.64733887 C-73.36516792 827.47110091 -69.33733631 823.21771688 -65.48945618 818.71897888 C-63.32476758 816.22071539 -61.02871902 813.89643685 -58.6875 811.5625 C-57.84574219 810.71816406 -57.00398438 809.87382813 -56.13671875 809.00390625 C-54 807 -54 807 -52 806 C-54.310986 798.33326177 -57.53616131 791.18376562 -60.8928833 783.9352417 C-62.59181232 780.26318574 -64.27252799 776.58281787 -65.953125 772.90234375 C-66.2953006 772.15333801 -66.6374762 771.40433228 -66.99002075 770.63262939 C-76.2110585 750.40391109 -84.80289555 729.88796891 -93.34672546 709.3662262 C-94.87218501 705.70247867 -96.40135767 702.04034709 -97.93701172 698.38085938 C-108.36262527 673.53618023 -118.36108875 648.54633009 -128.10574341 623.4269104 C-130.59878168 617.00828127 -133.14415755 610.61218382 -135.71069336 604.22265625 C-137.49302798 599.76766344 -139.22946008 595.29644386 -140.9375 590.8125 C-141.27539551 589.92578613 -141.61329102 589.03907227 -141.96142578 588.12548828 C-144.49637988 581.42774774 -146.88576393 574.68714198 -149.22338867 567.91845703 C-151.63339733 560.97050325 -154.17927162 554.07741173 -156.75 547.1875 C-161.93447218 533.27706404 -166.90273511 519.29453887 -171.83691406 505.29394531 C-172.78904494 502.59744031 -173.74679037 499.90316046 -174.7109375 497.2109375 C-178.24981985 487.31011254 -181.5701223 477.34083584 -184.84228516 467.34863281 C-185.20757324 466.24100586 -185.57286133 465.13337891 -185.94921875 463.9921875 C-186.27237061 463.00589355 -186.59552246 462.01959961 -186.9284668 461.00341797 C-187.69796559 458.84657721 -188.55224258 456.71928883 -189.45898438 454.61645508 C-191.06915405 450.83770928 -192.41598574 447.04013861 -193.70703125 443.14453125 C-193.95305084 442.40911102 -194.19907043 441.6736908 -194.45254517 440.91598511 C-195.24270474 438.54930837 -196.02793544 436.18103686 -196.8125 433.8125 C-197.2154277 432.6010582 -197.2154277 432.6010582 -197.62649536 431.36514282 C-201.18582629 420.65949958 -204.61330777 409.9314367 -207.77734375 399.1015625 C-208.91711989 395.21928464 -210.19215467 391.39173992 -211.5 387.5625 C-213.86636228 380.60037303 -215.85695859 373.55420688 -217.83984375 366.47460938 C-219.07621142 362.09952482 -220.35362799 357.80481129 -222 353.5625 C-225.11158275 345.44645499 -227.07580409 336.92211278 -229.31689453 328.53515625 C-230.44955542 324.33159989 -231.65917491 320.15111293 -232.8671875 315.96875 C-233.82942294 312.6199532 -234.76328853 309.2635735 -235.6953125 305.90625 C-236.00218994 304.8025708 -236.30906738 303.6988916 -236.62524414 302.56176758 C-237.23565294 300.36420051 -237.84430405 298.16614423 -238.45092773 295.9675293 C-239.94898803 290.58085098 -241.51986185 285.25172976 -243.36694336 279.97363281 C-244.27710839 277.13608012 -244.85844222 274.25214047 -245.45703125 271.3359375 C-246.25410181 267.9068138 -247.37971196 264.59335958 -248.51171875 261.26171875 C-249.07024297 258.67463458 -248.85019171 257.48569515 -248 255 C-246.7668457 253.33447266 -246.7668457 253.33447266 -245.17578125 251.6640625 C-244.56984131 251.02267334 -243.96390137 250.38128418 -243.33959961 249.72045898 C-242.67065674 249.02895752 -242.00171387 248.33745605 -241.3125 247.625 C-240.61713135 246.89547119 -239.9217627 246.16594238 -239.20532227 245.41430664 C-232.13621106 238.04376047 -224.89620375 230.8384696 -217.62817383 223.66455078 C-213.18461859 219.26407431 -208.91510247 214.81892363 -204.84790039 210.07055664 C-200.07828774 204.72624631 -194.83720707 199.80414898 -189.73828125 194.77734375 C-185.14740231 190.22621268 -180.70706741 185.6347133 -176.50195312 180.72460938 C-174.44677263 178.36475972 -172.24129885 176.1823173 -170 174 C-167.11010172 171.14476317 -164.31548255 168.28499804 -161.6875 165.1875 C-157.99053679 160.85827705 -153.95068842 156.89449524 -149.8815918 152.91870117 C-147.06428151 150.14608963 -144.38253814 147.32054498 -141.81445312 144.31445312 C-137.9591117 139.88789369 -133.86044427 135.75046683 -129.6875 131.625 C-128.5286731 130.47185303 -128.5286731 130.47185303 -127.34643555 129.29541016 C-124.07623964 126.0414017 -120.8000651 122.79343734 -117.52441406 119.54492188 C-115.11834715 117.15704648 -112.71536962 114.76609207 -110.3125 112.375 C-109.58313232 111.65393066 -108.85376465 110.93286133 -108.10229492 110.18994141 C-104.08759696 106.19425287 -100.27656637 102.09434003 -96.57910156 97.80395508 C-94.47483035 95.4000497 -92.24379843 93.14824688 -89.96875 90.90625 C-88.62876953 89.57787109 -88.62876953 89.57787109 -87.26171875 88.22265625 C-85.42057292 86.40755208 -83.57942708 84.59244792 -81.73828125 82.77734375 C-77.19827118 78.27664113 -72.81622682 73.73597795 -68.65820312 68.88085938 C-65.18108174 64.93684537 -61.35987383 61.32152591 -57.60546875 57.64453125 C-54.56926644 54.64604574 -51.63935081 51.62697542 -48.875 48.375 C-42.89122585 41.43543741 -36.19054441 35.13771446 -29.67919922 28.69970703 C-20.77269308 19.90755676 -20.77269308 19.90755676 -12.38720703 10.62304688 C-10.41706579 8.31796082 -8.32166559 6.15285355 -6.1875 4 C-5.43855469 3.236875 -4.68960937 2.47375 -3.91796875 1.6875 C-2 0 -2 0 0 0 Z " fill="#010101" transform="translate(1180,266)"/>
<path d="M0 0 C3.35400417 0.02150473 6.70587283 0.00000877 10.05981445 -0.02539062 C69.63345107 -0.10066923 129.02666731 25.33508062 172.57348633 65.49414062 C174.54004386 67.29421709 176.5537381 69.00236508 178.60083008 70.70898438 C207.0788594 95.62726003 227.36874361 130.58456833 240.78833008 165.52148438 C241.2343457 166.67390625 241.68036133 167.82632813 242.13989258 169.01367188 C245.14128033 177.3981938 247.2712378 186.0097923 249.41333008 194.64648438 C249.84754272 196.36907471 249.84754272 196.36907471 250.29052734 198.12646484 C254.45696163 215.43171792 256.28132026 232.50021182 256.12451172 250.28808594 C256.10077917 253.15262921 256.10400532 256.01624131 256.1105957 258.88085938 C256.08364026 276.87284533 254.58058752 294.14373529 249.78833008 311.52148438 C249.37405762 313.030896 249.37405762 313.030896 248.95141602 314.57080078 C242.75909422 336.85462265 235.03246004 357.31094329 223.78833008 377.52148438 C223.18118164 378.63136719 222.5740332 379.74125 221.94848633 380.88476562 C215.39378575 392.52899841 207.32857614 403.26706706 198.78833008 413.52148438 C198.35294922 414.04709961 197.91756836 414.57271484 197.46899414 415.11425781 C188.07815621 426.41291182 178.14421498 437.1548106 166.78833008 446.52148438 C166.27463867 446.94896973 165.76094727 447.37645508 165.23168945 447.81689453 C156.13827041 455.35647177 146.75967596 462.1917956 136.78833008 468.52148438 C135.92981445 469.07320312 135.07129883 469.62492187 134.18676758 470.19335938 C121.78702229 477.9069133 108.27217773 483.9735573 94.78833008 489.52148438 C94.08434082 489.81410156 93.38035156 490.10671875 92.6550293 490.40820312 C33.98786994 514.44717337 -35.25737823 511.84483974 -93.40307617 488.01757812 C-106.59157994 482.46114305 -119.08868874 476.12347257 -131.21166992 468.52148438 C-132.32670898 467.8228125 -133.44174805 467.12414063 -134.59057617 466.40429688 C-145.35442554 459.41551332 -155.31670163 451.56443388 -164.71557617 442.83398438 C-166.92733564 440.78490518 -169.17589269 438.79948956 -171.46166992 436.83398438 C-177.91690816 431.207015 -183.70177852 425.06888732 -189.21166992 418.52148438 C-189.67879395 417.9681543 -190.14591797 417.41482422 -190.62719727 416.84472656 C-198.49951845 407.47654154 -205.76866393 397.92902963 -212.21166992 387.52148438 C-212.65220703 386.81185547 -213.09274414 386.10222656 -213.54663086 385.37109375 C-221.20402151 372.90405744 -227.49941277 359.9819463 -233.21166992 346.52148438 C-233.50912109 345.83054687 -233.80657227 345.13960937 -234.11303711 344.42773438 C-252.22740595 301.77484175 -256.59339152 247.71296938 -246.21166992 202.52148438 C-245.9920459 201.54324707 -245.77242188 200.56500977 -245.54614258 199.55712891 C-237.5883561 164.94948707 -223.37596437 130.52604647 -201.21166992 102.52148438 C-200.60452148 101.73644531 -199.99737305 100.95140625 -199.37182617 100.14257812 C-197.35362444 97.57133134 -195.29317859 95.04177797 -193.21166992 92.52148438 C-192.78402344 92.00215332 -192.35637695 91.48282227 -191.91577148 90.94775391 C-181.15004291 77.93694926 -169.63108746 65.8304409 -156.21166992 55.52148438 C-155.63755371 55.07095703 -155.0634375 54.62042969 -154.47192383 54.15625 C-144.19963221 46.10187007 -133.54982359 38.98822606 -122.21166992 32.52148438 C-121.40101074 32.0585498 -120.59035156 31.59561523 -119.75512695 31.11865234 C-83.34228386 10.59788521 -41.75323813 -0.31679702 0 0 Z " fill="#010202" transform="translate(679.211669921875,598.478515625)"/>
<path d="M0 0 C1.87558594 0.37511719 1.87558594 0.37511719 3.7890625 0.7578125 C10.65345653 2.30097085 16.70952457 4.89119361 23 8 C24.25064735 8.58473574 25.50199339 9.16797863 26.75390625 9.75 C36.27319707 14.24956499 44.67100887 19.57807833 53 26 C53.95519531 26.71929688 54.91039062 27.43859375 55.89453125 28.1796875 C66.61338361 36.55235329 75.63621345 46.5797355 83 58 C83.57105469 58.83660156 84.14210938 59.67320312 84.73046875 60.53515625 C89.69134376 67.97099319 93.53742007 75.78592391 97 84 C97.27231445 84.64146973 97.54462891 85.28293945 97.82519531 85.94384766 C108.77479717 112.39104198 110.31420389 142.44402232 103 170 C102.81808105 170.69883301 102.63616211 171.39766602 102.44873047 172.11767578 C96.70165006 193.60117654 86.51797405 212.21120049 72 229 C71.33871094 229.80695313 70.67742187 230.61390625 69.99609375 231.4453125 C50.83921564 254.05551778 24.36719524 267.31672552 -4 274 C-4.74556152 274.18111328 -5.49112305 274.36222656 -6.25927734 274.54882812 C-24.32637009 278.79437951 -44.04805701 278.51157287 -62 274 C-62.7827832 273.81244141 -63.56556641 273.62488281 -64.37207031 273.43164062 C-73.23480075 271.30127602 -81.85884468 269.17948944 -90 265 C-91.16273438 264.47019531 -92.32546875 263.94039062 -93.5234375 263.39453125 C-124.0999002 249.23589785 -147.26026587 223.41708818 -161 193 C-161.54398438 191.82308594 -162.08796875 190.64617187 -162.6484375 189.43359375 C-173.63428727 164.03230151 -177.20886356 132.83451491 -170 106 C-169.81195801 105.25443848 -169.62391602 104.50887695 -169.43017578 103.74072266 C-163.51090632 80.51100407 -152.86395976 57.29196312 -134.9375 40.859375 C-132.89899314 38.98937078 -132.89899314 38.98937078 -131.05859375 36.53125 C-112.86586472 14.16144276 -77.29295059 -0.90386926 -49.265625 -3.81689453 C-32.43815258 -5.17687344 -16.48891187 -3.37492348 0 0 Z " fill="#FDFDFC" transform="translate(715,715)"/>
<path d="M0 0 C4.33515262 1.44505087 5.23995091 4.69724126 7.1875 8.5625 C7.58404785 9.33118408 7.9805957 10.09986816 8.38916016 10.8918457 C9.60413407 13.25564117 10.80420841 15.62645138 12 18 C12.33692871 18.66547852 12.67385742 19.33095703 13.02099609 20.01660156 C15.37182693 24.66562377 17.68721181 29.33196858 20 34 C26.00162035 46.10109321 32.07267121 58.15282596 38.40234375 70.0859375 C40.26690699 73.60270895 42.10993777 77.12994261 43.94140625 80.6640625 C48.98764583 90.39892775 54.10189772 100.07322261 59.48339844 109.62719727 C62.58778305 115.17065131 65.44191059 120.81283693 68.23876953 126.51635742 C70.47056122 131.03519444 72.93163224 135.32593379 75.5859375 139.60546875 C77.11870356 142.20100906 78.43591893 144.84991366 79.75 147.5625 C82.65992081 153.51286578 85.99009099 159.15618389 89.38427734 164.83740234 C92.13785999 169.46790401 94.65360732 174.14614611 96.98828125 179.00390625 C98.42045411 181.8295446 100.2313008 184.37547861 102 187 C102.63995489 188.23192164 103.26110344 189.47372258 103.8671875 190.72265625 C105.81192159 194.6596116 107.89606324 198.49393906 110.0625 202.3125 C110.44607666 202.99127197 110.82965332 203.67004395 111.22485352 204.36938477 C118.03938541 216.39671321 125.00413731 228.33782581 132.02587891 240.24511719 C135.64214865 246.38053866 139.22812294 252.53340483 142.8125 258.6875 C148.43044127 268.32858757 154.08686204 277.94612949 159.7734375 287.546875 C161.97347162 291.26135744 164.1654133 294.98045422 166.3515625 298.703125 C171.80267121 307.97508946 177.27462804 317.21582746 183.10620117 326.25537109 C186 330.78949534 186 330.78949534 186 333 C179.92493259 331.2034416 174.29456541 328.47192159 168.5625 325.8125 C167.48718018 325.31637207 166.41186035 324.82024414 165.30395508 324.30908203 C162.20102509 322.87617139 159.10016726 321.43887628 156 320 C154.87319824 319.47817139 154.87319824 319.47817139 153.72363281 318.94580078 C148.04859472 316.31690211 142.38447732 313.66746232 136.74609375 310.9609375 C126.53176335 306.06800914 116.23047497 301.41637581 105.8515625 296.88256836 C100.58188288 294.5799298 95.33081222 292.25604451 90.125 289.8125 C84.29230253 287.0843028 78.36664738 284.5983493 72.41064453 282.15356445 C67.54188739 280.13611488 62.75835468 277.96657341 57.9921875 275.71875 C50.31397734 272.10347439 42.54447821 268.72240488 34.73876953 265.39282227 C32.50024453 264.43760435 30.26369777 263.4778661 28.02734375 262.51757812 C19.88333538 259.02912505 11.70442731 255.65319137 3.4699707 252.38427734 C-4.99794942 249.00616526 -13.37451761 245.41886269 -21.7421875 241.80102539 C-34.19958468 236.41888604 -46.72138746 231.23899228 -59.34375 226.25390625 C-64.23851694 224.31717061 -69.09581606 222.29854144 -73.95117188 220.26538086 C-79.11260219 218.12318889 -84.30703145 216.06428564 -89.5 214 C-95.6373351 211.560314 -101.76704053 209.10893243 -107.859375 206.55859375 C-114.79478325 203.65637471 -121.76927634 200.85340233 -128.75 198.0625 C-129.40686798 197.79954132 -130.06373596 197.53658264 -130.74050903 197.26565552 C-139.41130317 193.79651995 -148.09812134 190.38737548 -156.87109375 187.18359375 C-160.29478692 185.88848884 -163.64436626 184.46170463 -167 183 C-167.73089844 182.68675781 -168.46179688 182.37351562 -169.21484375 182.05078125 C-170.80989583 181.3671875 -172.40494792 180.68359375 -174 180 C-170.1617722 174.2738634 -165.78090768 169.87911976 -160.58984375 165.3671875 C-157.1310205 162.20572914 -154.10979352 158.7304663 -151.0234375 155.2109375 C-149.37393132 153.40858132 -147.785315 151.88101553 -145.875 150.375 C-143.59660476 148.49284741 -141.9404382 146.8500002 -140.0625 144.625 C-133.38271887 136.77438083 -125.77672571 129.70390977 -118.4375 122.4765625 C-114.85180666 118.83340612 -111.42347433 115.04813613 -107.9921875 111.25976562 C-104.66290948 107.63323064 -101.21814198 104.36548094 -97.39599609 101.25952148 C-95.8634416 100.03063509 -95.8634416 100.03063509 -95 98 C-94.34 98 -93.68 98 -93 98 C-92.74259033 97.41661865 -92.48518066 96.8332373 -92.2199707 96.23217773 C-90.89466755 93.80727345 -89.44772789 92.21960671 -87.48046875 90.28515625 C-86.78759766 89.59873047 -86.09472656 88.91230469 -85.38085938 88.20507812 C-84.65705078 87.49802734 -83.93324219 86.79097656 -83.1875 86.0625 C-82.11918945 85.00772461 -82.11918945 85.00772461 -81.02929688 83.93164062 C-78.21267376 81.15149551 -75.38968204 78.378495 -72.55078125 75.62109375 C-70.33429716 73.34351209 -68.23595042 71.01388521 -66.1328125 68.6328125 C-59.67958565 61.42069686 -52.75079429 54.68075225 -45.875 47.875 C-35.5182115 37.73055941 -35.5182115 37.73055941 -25.78076172 27.00341797 C-21.47236997 22.15632959 -16.73941311 17.67933705 -12.125 13.125 C-10.04139745 11.06798047 -7.96113977 9.00766016 -5.8828125 6.9453125 C-4.96902832 6.04312988 -4.05524414 5.14094727 -3.11376953 4.21142578 C-0.97050834 2.18662739 -0.97050834 2.18662739 0 0 Z " fill="#FCFDFC" transform="translate(1188,1201)"/>
<path d="M0 0 C0.66 0.33 1.32 0.66 2 1 C1.52054932 1.46897705 1.04109863 1.9379541 0.54711914 2.42114258 C-1.61963447 4.54635426 -3.77861629 6.67929545 -5.9375 8.8125 C-7.06961914 9.91948242 -7.06961914 9.91948242 -8.22460938 11.04882812 C-8.94326172 11.76103516 -9.66191406 12.47324219 -10.40234375 13.20703125 C-11.06741943 13.8616333 -11.73249512 14.51623535 -12.41772461 15.19067383 C-14.22027203 17.01669757 -14.22027203 17.01669757 -15 20 C-16.57409668 21.55409241 -16.57409668 21.55409241 -18.57617188 23.20727539 C-22.8564715 26.84113837 -26.82820372 30.69957174 -30.78125 34.68359375 C-31.48020386 35.38396255 -32.17915771 36.08433136 -32.89929199 36.80592346 C-35.10191539 39.01408458 -37.30101081 41.22572037 -39.5 43.4375 C-41.00497508 44.94749814 -42.51018135 46.4572659 -44.015625 47.96679688 C-47.67975829 51.64187641 -51.3407348 55.32007356 -55 59 C-55.66 58.67 -56.32 58.34 -57 58 C-56.09757568 57.1028125 -55.19515137 56.205625 -54.26538086 55.28125 C-50.88761614 51.92171518 -47.51326835 48.55876556 -44.13989258 45.19482422 C-42.68507983 43.74501083 -41.22936717 42.29609983 -39.77270508 40.84814453 C-37.66765449 38.75535357 -35.56596381 36.65923626 -33.46484375 34.5625 C-32.50190651 33.60730469 -32.50190651 33.60730469 -31.51951599 32.6328125 C-27.71266358 28.82642377 -24.11633742 24.8971324 -20.59764099 20.82348633 C-18.5409371 18.47604316 -16.37428783 16.2613617 -14.16015625 14.0625 C-13.32548828 13.23105469 -12.49082031 12.39960938 -11.63085938 11.54296875 C-10.35952148 10.28419922 -10.35952148 10.28419922 -9.0625 9 C-8.18787109 8.12988281 -7.31324219 7.25976562 -6.41210938 6.36328125 C-4.27702551 4.23986451 -2.13962795 2.11883622 0 0 Z " fill="#212424" transform="translate(996,455)"/>
<path d="M0 0 C0 3 0 3 -2.08203125 5.3046875 C-2.98308594 6.15289063 -3.88414062 7.00109375 -4.8125 7.875 C-7.48482651 10.39693584 -9.71779794 12.51682526 -11.57421875 15.6953125 C-13.21867767 18.35347898 -14.26717007 18.65096493 -17 20 C-18.65644352 21.37132711 -18.65644352 21.37132711 -20.20800781 22.98095703 C-20.80832825 23.58142853 -21.40864868 24.18190002 -22.02716064 24.80056763 C-22.980513 25.76940384 -22.980513 25.76940384 -23.953125 26.7578125 C-24.94345734 27.75238968 -24.94345734 27.75238968 -25.95379639 28.76705933 C-28.05727824 30.88171832 -30.15369142 33.00323212 -32.25 35.125 C-33.67662261 36.56165557 -35.10370072 37.99785898 -36.53125 39.43359375 C-40.02613661 42.95050804 -43.51470062 46.47358547 -47 50 C-47.66 49.67 -48.32 49.34 -49 49 C-32.83 32.83 -16.66 16.66 0 0 Z " fill="#1D221C" transform="translate(954,1249)"/>
<path d="M0 0 C3.08708331 3.70589056 5.73750332 7.57910265 8.25 11.6875 C8.61351562 12.26822266 8.97703125 12.84894531 9.3515625 13.44726562 C12 17.7534657 12 17.7534657 12 20 C6.80355921 18.40109514 1.93387858 16.25861997 -3 14 C-2.34 13.67 -1.68 13.34 -1 13 C-1 12.34 -1 11.68 -1 11 C-0.34 11 0.32 11 1 11 C0.67 7.37 0.34 3.74 0 0 Z " fill="#ECEAEA" transform="translate(1362,1514)"/>
<path d="M0 0 C0.598125 0.350625 1.19625 0.70125 1.8125 1.0625 C1.4825 1.7225 1.1525 2.3825 0.8125 3.0625 C1.4725 3.0625 2.1325 3.0625 2.8125 3.0625 C2.8125 2.0725 2.8125 1.0825 2.8125 0.0625 C7.1025 0.0625 11.3925 0.0625 15.8125 0.0625 C13.8325 3.0325 13.8325 3.0325 11.8125 6.0625 C9.91556139 5.77811048 8.01997973 5.48466208 6.125 5.1875 C5.06925781 5.02507812 4.01351563 4.86265625 2.92578125 4.6953125 C0.01455086 4.10356931 -2.47705607 3.2593194 -5.1875 2.0625 C-5.1875 1.4025 -5.1875 0.7425 -5.1875 0.0625 C-2.1875 -0.9375 -2.1875 -0.9375 0 0 Z " fill="#EDEEEC" transform="translate(408.1875,1191.9375)"/>
<path d="M0 0 C0.495 0.99 0.495 0.99 1 2 C-0.66789643 3.90616735 -2.33635358 5.81179715 -4.0078125 7.71484375 C-5.26387224 9.15561816 -6.51012467 10.60505819 -7.7421875 12.06640625 C-11.09899358 16.0187747 -14.579802 19.4485405 -18.53515625 22.79296875 C-24.27019257 27.9281439 -29.59261702 33.52426526 -35 39 C-35.66 38.67 -36.32 38.34 -37 38 C-36.09233887 37.09757568 -35.18467773 36.19515137 -34.24951172 35.26538086 C-30.85874016 31.89281116 -27.4713625 28.5168497 -24.08496094 25.13989258 C-22.62330912 23.68324641 -21.16075811 22.22750192 -19.69726562 20.77270508 C-17.58482354 18.67249443 -15.47571623 16.56898238 -13.3671875 14.46484375 C-12.72006805 13.82288559 -12.07294861 13.18092743 -11.40621948 12.51951599 C-7.39078664 8.50457218 -3.64543462 4.35440542 0 0 Z " fill="#161A16" transform="translate(1069,1131)"/>
<path d="M0 0 C2.64465038 3.1254959 3.84414715 6.08788267 5 10 C0.12384111 9.39048014 -3.71977509 7.25498927 -8 5 C-9.33194058 4.33055508 -10.66488733 3.66309605 -12 3 C-7.67265609 0.77076223 -4.71599818 1.07529447 0 2 C0 1.34 0 0.68 0 0 Z " fill="#181718" transform="translate(1680,1801)"/>
<path d="M0 0 C1.20217503 2.40435006 1.03897118 3.68381369 0.87890625 6.3515625 C0.83056641 7.20234375 0.78222656 8.053125 0.73242188 8.9296875 C0.64831055 10.26386719 0.64831055 10.26386719 0.5625 11.625 C0.51029297 12.5221875 0.45808594 13.419375 0.40429688 14.34375 C0.2744565 16.56284012 0.13948661 18.78149871 0 21 C-1.32 21.33 -2.64 21.66 -4 22 C-4.02703562 19.41659616 -4.04685611 16.83347692 -4.0625 14.25 C-4.07087891 13.52039063 -4.07925781 12.79078125 -4.08789062 12.0390625 C-4.11946965 5.09167755 -4.11946965 5.09167755 -3 2 C-2.01 1.34 -1.02 0.68 0 0 Z " fill="#0E0E13" transform="translate(542,835)"/>
<path d="M0 0 C2 2 2 2 2.265625 4.609375 C2.21383648 15.01886792 2.21383648 15.01886792 0 20 C-1.8133922 16.79989612 -2.52213974 13.86716157 -3.125 10.25 C-3.29257813 9.26515625 -3.46015625 8.2803125 -3.6328125 7.265625 C-3.75398438 6.51796875 -3.87515625 5.7703125 -4 5 C-3.34 5 -2.68 5 -2 5 C-2 4.34 -2 3.68 -2 3 C-1.34 3 -0.68 3 0 3 C0 2.01 0 1.02 0 0 Z " fill="#F0EFEE" transform="translate(1271,755)"/>
<path d="M0 0 C0.99 0.33 1.98 0.66 3 1 C-1.95 5.95 -6.9 10.9 -12 16 C-12.99 15.34 -13.98 14.68 -15 14 C-13.35 12.35 -11.7 10.7 -10 9 C-10.33 8.01 -10.66 7.02 -11 6 C-7.535 5.505 -7.535 5.505 -4 5 C-4 4.34 -4 3.68 -4 3 C-2.1875 1.3125 -2.1875 1.3125 0 0 Z " fill="#16131A" transform="translate(1109,1280)"/>
<path d="M0 0 C-0.99 1.485 -0.99 1.485 -2 3 C-3.32 3 -4.64 3 -6 3 C-6.33 3.66 -6.66 4.32 -7 5 C-7.33 4.34 -7.66 3.68 -8 3 C-8.97839844 3.10828125 -8.97839844 3.10828125 -9.9765625 3.21875 C-23.13321799 4.61591696 -23.13321799 4.61591696 -30 2 C-30 1.67 -30 1.34 -30 1 C-26.50014278 0.83024428 -23.00009554 0.66476277 -19.5 0.5 C-18.51773438 0.45230469 -17.53546875 0.40460938 -16.5234375 0.35546875 C-11.00800467 0.09808188 -5.52135535 -0.05258434 0 0 Z " fill="#EBE8F3" transform="translate(705,1104)"/>
<path d="M0 0 C2.31 0.66 4.62 1.32 7 2 C7 5.33333333 7 8.66666667 7 12 C6.01 12.33 5.02 12.66 4 13 C3.67 13.99 3.34 14.98 3 16 C2.01 10.72 1.02 5.44 0 0 Z " fill="#F0F1F1" transform="translate(1234,613)"/>
<path d="M0 0 C0.66 0 1.32 0 2 0 C1.90460938 0.62648438 1.80921875 1.25296875 1.7109375 1.8984375 C1.60007812 2.71570312 1.48921875 3.53296875 1.375 4.375 C1.25898437 5.18710938 1.14296875 5.99921875 1.0234375 6.8359375 C1.01570313 7.55007813 1.00796875 8.26421875 1 9 C1.66 9.66 2.32 10.32 3 11 C2.34 12.65 1.68 14.3 1 16 C-1.40804568 13.59195432 -2.00768759 11.57796225 -3.125 8.375 C-3.47820312 7.37210938 -3.83140625 6.36921875 -4.1953125 5.3359375 C-4.46085937 4.56507812 -4.72640625 3.79421875 -5 3 C-4.01 2.67 -3.02 2.34 -2 2 C-1.34 2.33 -0.68 2.66 0 3 C0 2.01 0 1.02 0 0 Z " fill="#EEEEEE" transform="translate(1445,1297)"/>
<path d="M0 0 C2.33573034 3.64957865 2.45652447 6.73910491 2 11 C0 13.4375 0 13.4375 -2 15 C-2.93254694 11.34542416 -3.75051478 7.76939621 -4 4 C-2.125 1.3125 -2.125 1.3125 0 0 Z " fill="#EAEAE9" transform="translate(549,875)"/>
<path d="M0 0 C0.66 0 1.32 0 2 0 C2.63394697 4.04141194 3.12404452 7.9065307 3 12 C1.02 12.33 -0.96 12.66 -3 13 C-2.69128878 11.20767663 -2.37790936 9.41615679 -2.0625 7.625 C-1.88847656 6.62726562 -1.71445312 5.62953125 -1.53515625 4.6015625 C-1 2 -1 2 0 0 Z " fill="#EBEFEC" transform="translate(548,811)"/>
<path d="M0 0 C0.94875 0.04125 1.8975 0.0825 2.875 0.125 C2.875 0.785 2.875 1.445 2.875 2.125 C3.535 2.125 4.195 2.125 4.875 2.125 C5.205 1.465 5.535 0.805 5.875 0.125 C6.205 1.445 6.535 2.765 6.875 4.125 C7.535 4.125 8.195 4.125 8.875 4.125 C8.875 5.115 8.875 6.105 8.875 7.125 C3.80501981 6.47080901 -0.54490777 4.2703591 -5.125 2.125 C-3.125 0.125 -3.125 0.125 0 0 Z " fill="#ECECEA" transform="translate(1158.125,1434.875)"/>
<path d="M0 0 C0.66 0.66 1.32 1.32 2 2 C-0.03253474 8.33672594 -0.03253474 8.33672594 -2.65234375 10.1328125 C-5.52292233 11.38300106 -7.86426585 12 -11 12 C-7.49102731 7.81576108 -3.91939465 3.80411834 0 0 Z " fill="#F1ECF2" transform="translate(1063,1330)"/>
<path d="M0 0 C0.99 0.66 1.98 1.32 3 2 C-1.95 6.95 -6.9 11.9 -12 17 C-12.33 16.01 -12.66 15.02 -13 14 C-12.34 14 -11.68 14 -11 14 C-10.9071875 13.071875 -10.9071875 13.071875 -10.8125 12.125 C-10.544375 11.42375 -10.27625 10.7225 -10 10 C-8.33927151 9.31867549 -6.672233 8.65257873 -5 8 C-3.81669817 6.13355094 -3.81669817 6.13355094 -3 4 C-2.02418241 2.64886795 -1.02970259 1.31053056 0 0 Z " fill="#E1E6E5" transform="translate(1160,281)"/>
<path d="M0 0 C0 0.66 0 1.32 0 2 C0.99 2.33 1.98 2.66 3 3 C-10.86 2.505 -10.86 2.505 -25 2 C-25 1.67 -25 1.34 -25 1 C-16.64895793 0.31728707 -8.38011029 -0.15392039 0 0 Z " fill="#2B2C2D" transform="translate(246,1449)"/>
<path d="M0 0 C0.66 0.33 1.32 0.66 2 1 C1.52054932 1.46897705 1.04109863 1.9379541 0.54711914 2.42114258 C-1.61963447 4.54635426 -3.77861629 6.67929545 -5.9375 8.8125 C-7.06961914 9.91948242 -7.06961914 9.91948242 -8.22460938 11.04882812 C-8.94326172 11.76103516 -9.66191406 12.47324219 -10.40234375 13.20703125 C-11.06741943 13.8616333 -11.73249512 14.51623535 -12.41772461 15.19067383 C-14.22027203 17.01669757 -14.22027203 17.01669757 -15 20 C-15.99 20.33 -16.98 20.66 -18 21 C-17.43379699 17.22531329 -15.87731019 15.52448107 -13.18359375 12.890625 C-12.41982422 12.13652344 -11.65605469 11.38242187 -10.86914062 10.60546875 C-10.06669922 9.82816406 -9.26425781 9.05085938 -8.4375 8.25 C-7.63119141 7.45722656 -6.82488281 6.66445313 -5.99414062 5.84765625 C-4.00266222 3.89152954 -2.00452279 1.94274281 0 0 Z " fill="#181B1A" transform="translate(996,455)"/>
<path d="M0 0 C1.9375 0.375 1.9375 0.375 4 1 C6.18703385 0.62092718 6.18703385 0.62092718 8 0 C7.67 0.99 7.34 1.98 7 3 C7.66 3.66 8.32 4.32 9 5 C8.67 5.99 8.34 6.98 8 8 C4.37 6.35 0.74 4.7 -3 3 C-2.01 2.01 -1.02 1.02 0 0 Z " fill="#E8EAE5" transform="translate(1295,1494)"/>
<path d="M0 0 C0.05391993 1.79133978 0.09275571 3.58313899 0.125 5.375 C0.14820313 6.37273437 0.17140625 7.37046875 0.1953125 8.3984375 C0 11 0 11 -2 13 C-2.6708712 11.3767313 -3.33657029 9.75132422 -4 8.125 C-4.37125 7.22007813 -4.7425 6.31515625 -5.125 5.3828125 C-6 3 -6 3 -6 1 C-1.125 0 -1.125 0 0 0 Z " fill="#F0F1EF" transform="translate(1497,1419)"/>
<path d="M0 0 C1.32 0.66 2.64 1.32 4 2 C1.03 5.3 -1.94 8.6 -5 12 C-5.99 11.34 -6.98 10.68 -8 10 C-6.625 8 -6.625 8 -5 6 C-4.34 6 -3.68 6 -3 6 C-2.67 4.68 -2.34 3.36 -2 2 C-1.34 2 -0.68 2 0 2 C0 1.34 0 0.68 0 0 Z " fill="#17161D" transform="translate(1033,1355)"/>
<path d="M0 0 C0.99 0.33 1.98 0.66 3 1 C-1.62 5.62 -6.24 10.24 -11 15 C-12 12 -12 12 -11 9 C-9.35 8.67 -7.7 8.34 -6 8 C-6 7.34 -6 6.68 -6 6 C-5.34 6 -4.68 6 -4 6 C-3.566875 5.071875 -3.566875 5.071875 -3.125 4.125 C-2 2 -2 2 0 0 Z " fill="#F3F3EF" transform="translate(1032,1166)"/>
<path d="M0 0 C0 0.66 0 1.32 0 2 C0.66 2.33 1.32 2.66 2 3 C2 3.99 2 4.98 2 6 C-1.68266103 5.40049704 -5.34543185 4.75241109 -9 4 C-8.25 2.0625 -8.25 2.0625 -7 0 C-4.04680182 -1.23843794 -3.12561472 -1.04187157 0 0 Z " fill="#EDEDEC" transform="translate(483,1208)"/>
<path d="M0 0 C2.97 0.99 5.94 1.98 9 3 C8.67 3.99 8.34 4.98 8 6 C4.71303767 6.79953138 3.28976808 7.09658936 0 6 C0 4.02 0 2.04 0 0 Z " fill="#EBEBE4" transform="translate(1405,1698)"/>
<path d="M0 0 C0.99 0.66 1.98 1.32 3 2 C3.56737589 9.14893617 3.56737589 9.14893617 1 13 C0.01 12.67 -0.98 12.34 -2 12 C-1.34 8.04 -0.68 4.08 0 0 Z " fill="#E7E6E7" transform="translate(930,901)"/>
<path d="M0 0 C0.33 0.66 0.66 1.32 1 2 C3.01669827 3.13350534 3.01669827 3.13350534 5 4 C5 4.99 5 5.98 5 7 C5.66 7.66 6.32 8.32 7 9 C6.67 9.66 6.34 10.32 6 11 C5.01 11 4.02 11 3 11 C1.35 7.7 -0.3 4.4 -2 1 C-1.34 0.67 -0.68 0.34 0 0 Z " fill="#E6E7E7" transform="translate(1634,1711)"/>
<path d="M0 0 C1.07765625 0.11988281 2.1553125 0.23976563 3.265625 0.36328125 C4.08546875 0.47027344 4.9053125 0.57726563 5.75 0.6875 C5.75 1.0175 5.75 1.3475 5.75 1.6875 C8.225 2.1825 8.225 2.1825 10.75 2.6875 C10.75 3.0175 10.75 3.3475 10.75 3.6875 C3.82 3.3575 -3.11 3.0275 -10.25 2.6875 C-5.79547969 -0.65339023 -5.20185771 -0.62196125 0 0 Z " fill="#2B2A29" transform="translate(339.25,1456.3125)"/>
<path d="M0 0 C0 2.97 0 5.94 0 9 C-0.99 9.33 -1.98 9.66 -3 10 C-3.99 7.36 -4.98 4.72 -6 2 C-3 0 -3 0 0 0 Z " fill="#F5F5F4" transform="translate(1481,1383)"/>
<path d="M0 0 C1.32 0.33 2.64 0.66 4 1 C3.67 2.32 3.34 3.64 3 5 C4.65 4.67 6.3 4.34 8 4 C8 5.65 8 7.3 8 9 C6.02 9.99 6.02 9.99 4 11 C2.68 7.37 1.36 3.74 0 0 Z " fill="#EDEEEC" transform="translate(1393,1178)"/>
<path d="M0 0 C1.32 0.66 2.64 1.32 4 2 C3.06725891 3.12894876 2.12859878 4.25300876 1.1875 5.375 C0.66542969 6.00148438 0.14335938 6.62796875 -0.39453125 7.2734375 C-2 9 -2 9 -5 11 C-5.33 9.35 -5.66 7.7 -6 6 C-5.01 6 -4.02 6 -3 6 C-2.690625 5.195625 -2.38125 4.39125 -2.0625 3.5625 C-1 1 -1 1 0 0 Z " fill="#E4E6E3" transform="translate(1054,1141)"/>
<path d="M0 0 C0.33 0.66 0.66 1.32 1 2 C-3.46351289 7.22325977 -8.0744893 12.20922972 -13 17 C-13.66 16.67 -14.32 16.34 -15 16 C-14.41992188 15.43152344 -13.83984375 14.86304688 -13.2421875 14.27734375 C-8.59383097 9.68268111 -4.17366549 5.029802 0 0 Z " fill="#1B251E" transform="translate(1069,1131)"/>
<path d="M0 0 C0.66 0.66 1.32 1.32 2 2 C-0.64 4.64 -3.28 7.28 -6 10 C-6.66 9.67 -7.32 9.34 -8 9 C-7.34 6.69 -6.68 4.38 -6 2 C-4.35 2.33 -2.7 2.66 -1 3 C-0.67 2.01 -0.34 1.02 0 0 Z " fill="#E7E6E4" transform="translate(1088,1109)"/>
<path d="M0 0 C1.125 3.75 1.125 3.75 0 6 C0.66 6.33 1.32 6.66 2 7 C1.67 7.99 1.34 8.98 1 10 C0.01 10.33 -0.98 10.66 -2 11 C-2.38922918 9.71254964 -2.76098036 8.41980403 -3.125 7.125 C-3.43824219 6.04605469 -3.43824219 6.04605469 -3.7578125 4.9453125 C-3.83773438 4.30335938 -3.91765625 3.66140625 -4 3 C-2 1 -2 1 0 0 Z " fill="#EBEEE9" transform="translate(1335,989)"/>
<path d="M0 0 C0 3 0 3 -2.40625 5.69921875 C-3.4299968 6.70302243 -4.4616054 7.69885649 -5.5 8.6875 C-6.02464844 9.19861328 -6.54929687 9.70972656 -7.08984375 10.23632812 C-8.38660904 11.49772708 -9.69246117 12.74977212 -11 14 C-10.67 14.66 -10.34 15.32 -10 16 C-10.99 16.33 -11.98 16.66 -13 17 C-13.66 16.34 -14.32 15.68 -15 15 C-10.05 10.05 -5.1 5.1 0 0 Z " fill="#2A2F2A" transform="translate(984,1218)"/>
<path d="M0 0 C1.65 0 3.3 0 5 0 C5.33 0.99 5.66 1.98 6 3 C3.03 4.65 0.06 6.3 -3 8 C-3.33 7.01 -3.66 6.02 -4 5 C-3.01 4.67 -2.02 4.34 -1 4 C-0.26676204 1.98491642 -0.26676204 1.98491642 0 0 Z " fill="#111310" transform="translate(808,1065)"/>
<path d="M0 0 C2.9375 0.75 2.9375 0.75 6 2 C6.875 4.125 6.875 4.125 7 6 C4.21176345 7.0326802 3.1322726 7.04509293 0.25 6.0625 C-0.4925 5.711875 -1.235 5.36125 -2 5 C-2 4.34 -2 3.68 -2 3 C-1.34 3 -0.68 3 0 3 C0 2.01 0 1.02 0 0 Z " fill="#F1F0ED" transform="translate(1490,1730)"/>
<path d="M0 0 C0.99 0 1.98 0 3 0 C3.33 0.66 3.66 1.32 4 2 C4.66 2 5.32 2 6 2 C5.67 4.97 5.34 7.94 5 11 C0 4.63636364 0 4.63636364 0 0 Z " fill="#E9EBE9" transform="translate(1505,1452)"/>
<path d="M0 0 C1.32 0 2.64 0 4 0 C4.66 3.3 5.32 6.6 6 10 C5.01 10 4.02 10 3 10 C2.49596232 8.70990357 1.99690074 7.41786211 1.5 6.125 C1.2215625 5.40570312 0.943125 4.68640625 0.65625 3.9453125 C0 2 0 2 0 0 Z " fill="#1B191D" transform="translate(440,927)"/>
<path d="M0 0 C1.32 0 2.64 0 4 0 C4 0.99 4 1.98 4 3 C4.66 3.33 5.32 3.66 6 4 C6.40729228 6.32156597 6.74438677 8.6568787 7 11 C6.01 11.495 6.01 11.495 5 12 C4.16180842 10.37750059 3.3295884 8.75191503 2.5 7.125 C2.0359375 6.22007813 1.571875 5.31515625 1.09375 4.3828125 C0 2 0 2 0 0 Z " fill="#ECECEA" transform="translate(1589,1628)"/>
<path d="M0 0 C0.99 0.33 1.98 0.66 3 1 C0.83735988 4.98381075 -1.71211176 7.88983545 -5 11 C-5.33 10.01 -5.66 9.02 -6 8 C-5.67 7.34 -5.34 6.68 -5 6 C-4.34 6 -3.68 6 -3 6 C-2.690625 5.195625 -2.38125 4.39125 -2.0625 3.5625 C-1 1 -1 1 0 0 Z " fill="#141612" transform="translate(879,1005)"/>
<path d="M0 0 C2.97 0.495 2.97 0.495 6 1 C5.67 2.98 5.34 4.96 5 7 C3.68 6.67 2.36 6.34 1 6 C0.67 6.66 0.34 7.32 0 8 C0 5.36 0 2.72 0 0 Z " fill="#EEEFEF" transform="translate(809,892)"/>
<path d="M0 0 C0.33 0.99 0.66 1.98 1 3 C-0.01320313 3.90492188 -0.01320313 3.90492188 -1.046875 4.828125 C-1.93890625 5.62734375 -2.8309375 6.4265625 -3.75 7.25 C-4.63171875 8.03890625 -5.5134375 8.8278125 -6.421875 9.640625 C-8.67866165 11.70592672 -10.85739926 13.81735064 -13 16 C-13.66 15.67 -14.32 15.34 -15 15 C-10.05 10.05 -5.1 5.1 0 0 Z " fill="#262A2A" transform="translate(1178,266)"/>
<path d="M0 0 C0.66 0.33 1.32 0.66 2 1 C-0.475 5.455 -0.475 5.455 -3 10 C-4.32 9.34 -5.64 8.68 -7 8 C-4.69 5.36 -2.38 2.72 0 0 Z " fill="#1D221E" transform="translate(192,1321)"/>
<path d="M0 0 C0.33 0.66 0.66 1.32 1 2 C0.67 2.99 0.34 3.98 0 5 C-0.639375 5.28875 -1.27875 5.5775 -1.9375 5.875 C-4.72047449 7.39298609 -4.95616804 9.09218239 -6 12 C-6.99 12.495 -6.99 12.495 -8 13 C-8.77734375 11.296875 -8.77734375 11.296875 -9 9 C-7.12890625 6.640625 -7.12890625 6.640625 -4.5625 4.25 C-3.71816406 3.45078125 -2.87382813 2.6515625 -2.00390625 1.828125 C-1.34261719 1.22484375 -0.68132812 0.6215625 0 0 Z " fill="#E0DAE5" transform="translate(1133,1258)"/>
<path d="M0 0 C0 3.81094059 -1.00717021 5.77024137 -3 9 C-5.6875 10.375 -5.6875 10.375 -8 11 C-8 8 -8 8 -6.25 5.95703125 C-5.5075 5.24933594 -4.765 4.54164062 -4 3.8125 C-2.88625 2.73935547 -2.88625 2.73935547 -1.75 1.64453125 C-1.1725 1.10183594 -0.595 0.55914063 0 0 Z " fill="#EBE1E8" transform="translate(1143,1248)"/>
<path d="M0 0 C0 3 0 3 -1.75 4.90234375 C-3.24870513 6.25794336 -4.74870427 7.61211374 -6.25 8.96484375 C-8.43465938 11.05813656 -8.43465938 11.05813656 -8 15 C-9.65 14.67 -11.3 14.34 -13 14 C-8.88380164 9.08064098 -4.59589638 4.47352044 0 0 Z " fill="#D6D6DA" transform="translate(1177,1213)"/>
<path d="M0 0 C0.33 0 0.66 0 1 0 C1.08165496 2.20770805 1.13948488 4.41630425 1.1875 6.625 C1.22230469 7.85476563 1.25710938 9.08453125 1.29296875 10.3515625 C0.9787947 14.26407664 -0.03093467 16.64070218 -2 20 C-2.33 20 -2.66 20 -3 20 C-3.33 17.36 -3.66 14.72 -4 12 C-3.01 12 -2.02 12 -1 12 C-0.67 8.04 -0.34 4.08 0 0 Z " fill="#ECE7EB" transform="translate(936,800)"/>
<path d="M0 0 C0.33 0.66 0.66 1.32 1 2 C-1.35264864 6.99937836 -5.32444324 10.94178253 -9 15 C-9 10.98763758 -7.45029655 9.55593108 -5.0625 6.375 C-4.33160156 5.39273438 -3.60070312 4.41046875 -2.84765625 3.3984375 C-1 1 -1 1 0 0 Z " fill="#D6DBDB" transform="translate(575,761)"/>
<path d="M0 0 C2.64465038 3.1254959 3.84414715 6.08788267 5 10 C0.25 9.25 0.25 9.25 -2 7 C-1.34 6.01 -0.68 5.02 0 4 C0 2.68 0 1.36 0 0 Z " fill="#232222" transform="translate(1680,1801)"/>
<path d="M0 0 C0.33 0.66 0.66 1.32 1 2 C-0.4562545 2.67119549 -1.91507867 3.33681807 -3.375 4 C-4.59316406 4.556875 -4.59316406 4.556875 -5.8359375 5.125 C-8 6 -8 6 -10 6 C-10 5.34 -10 4.68 -10 4 C-9.34 4 -8.68 4 -8 4 C-8 3.01 -8 2.02 -8 1 C-5.29120665 -0.35439668 -2.99066732 -0.06501451 0 0 Z " fill="#181819" transform="translate(785,1081)"/>
<path d="M0 0 C0.33 0.66 0.66 1.32 1 2 C1.66 2 2.32 2 3 2 C2.67 4.31 2.34 6.62 2 9 C1.01 9.33 0.02 9.66 -1 10 C-1.9765625 3.9453125 -1.9765625 3.9453125 -2 2 C-1.34 1.34 -0.68 0.68 0 0 Z " fill="#EBEBEE" transform="translate(1234,601)"/>
<path d="M0 0 C0.66 0 1.32 0 2 0 C1.34 2.31 0.68 4.62 0 7 C-2.31 6.34 -4.62 5.68 -7 5 C-5 2 -5 2 -2.9375 1.375 C-2.298125 1.25125 -1.65875 1.1275 -1 1 C-0.67 0.67 -0.34 0.34 0 0 Z " fill="#EAECE9" transform="translate(1152,1429)"/>
<path d="M0 0 C0.99 0.33 1.98 0.66 3 1 C-3.15034169 8.48291572 -3.15034169 8.48291572 -7 11 C-7 8 -7 8 -6 6 C-5.34 6 -4.68 6 -4 6 C-4 5.34 -4 4.68 -4 4 C-3.34 4 -2.68 4 -2 4 C-2 3.34 -2 2.68 -2 2 C-1.34 2 -0.68 2 0 2 C0 1.34 0 0.68 0 0 Z " fill="#E1E1DA" transform="translate(894,1306)"/>
<path d="M0 0 C0.99 0.33 1.98 0.66 3 1 C2.06725891 2.12894876 1.12859878 3.25300876 0.1875 4.375 C-0.33457031 5.00148438 -0.85664062 5.62796875 -1.39453125 6.2734375 C-3 8 -3 8 -6 10 C-5.35389319 6.51102321 -3.98128683 3.93230451 -2 1 C-1.34 0.67 -0.68 0.34 0 0 Z " fill="#E8EBE5" transform="translate(992,1206)"/>
<path d="M0 0 C0.99 0.33 1.98 0.66 3 1 C3.6875 3.0625 3.6875 3.0625 4 5 C2.35 6.32 0.7 7.64 -1 9 C-1 7.68 -1 6.36 -1 5 C-1.66 4.67 -2.32 4.34 -3 4 C-2.01 2.68 -1.02 1.36 0 0 Z " fill="#E3E7DF" transform="translate(1188,1201)"/>
<path d="M0 0 C0.66 0 1.32 0 2 0 C2.33 1.65 2.66 3.3 3 5 C3.99 5.33 4.98 5.66 6 6 C4.84826645 8.46800047 3.95216435 10.04783565 2 12 C0.86235649 7.73383684 0 4.43513689 0 0 Z " fill="#DBD9DD" transform="translate(1217,526)"/>
<path d="M0 0 C0.33 0.66 0.66 1.32 1 2 C3.64 2 6.28 2 9 2 C9.33 1.34 9.66 0.68 10 0 C10.99 0.33 11.98 0.66 13 1 C13 2.32 13 3.64 13 5 C7.72 4.01 2.44 3.02 -3 2 C-2.01 1.34 -1.02 0.68 0 0 Z " fill="#DBD6D6" transform="translate(432,1199)"/>
<path d="M0 0 C0.66 0.33 1.32 0.66 2 1 C1.98259766 1.90492188 1.98259766 1.90492188 1.96484375 2.828125 C1.95582031 3.62734375 1.94679688 4.4265625 1.9375 5.25 C1.92589844 6.03890625 1.91429687 6.8278125 1.90234375 7.640625 C1.99614694 9.90691002 2.36758937 11.8288895 3 14 C2.01 14.495 2.01 14.495 1 15 C0.63536268 13.25215171 0.2836922 11.50159498 -0.0625 9.75 C-0.25972656 8.77546875 -0.45695313 7.8009375 -0.66015625 6.796875 C-0.98397535 4.131881 -0.85503199 2.51128277 0 0 Z " fill="#161417" transform="translate(821,828)"/>
<path d="M0 0 C-0.99 3.3 -1.98 6.6 -3 10 C-3.33 9.34 -3.66 8.68 -4 8 C-4.66 7.67 -5.32 7.34 -6 7 C-6 5.68 -6 4.36 -6 3 C-2.78571429 0 -2.78571429 0 0 0 Z " fill="#EAEEEC" transform="translate(446,759)"/>
<path d="M0 0 C1.9375 0.6875 1.9375 0.6875 4 2 C4.75 4.625 4.75 4.625 5 7 C3.68 7 2.36 7 1 7 C0.34 5.02 -0.32 3.04 -1 1 C-0.67 0.67 -0.34 0.34 0 0 Z " fill="#EDEEEE" transform="translate(1648,1738)"/>
<path d="M0 0 C-3.515625 4.6875 -3.515625 4.6875 -5 6 C-6.32 6 -7.64 6 -9 6 C-9 3 -9 3 -7.3125 1.3125 C-4.6402007 -0.20421041 -3.02346601 -0.2519555 0 0 Z " fill="#201F24" transform="translate(1092,1301)"/>
<path d="M0 0 C0.33 0.66 0.66 1.32 1 2 C1.99 2.33 2.98 2.66 4 3 C3.67 4.65 3.34 6.3 3 8 C2.34 8 1.68 8 1 8 C0.67 8.66 0.34 9.32 0 10 C-0.19412181 8.52168779 -0.38012131 7.04230684 -0.5625 5.5625 C-0.66691406 4.73878906 -0.77132812 3.91507813 -0.87890625 3.06640625 C-0.91886719 2.38449219 -0.95882812 1.70257812 -1 1 C-0.67 0.67 -0.34 0.34 0 0 Z " fill="#E5E2E4" transform="translate(930,794)"/>
<path d="M0 0 C1.32 0.66 2.64 1.32 4 2 C0.535 4.97 0.535 4.97 -3 8 C-3.33 6.35 -3.66 4.7 -4 3 C-3.01 3.33 -2.02 3.66 -1 4 C-0.67 2.68 -0.34 1.36 0 0 Z " fill="#E9EEED" transform="translate(945,502)"/>
<path d="M0 0 C0.99 0.66 1.98 1.32 3 2 C0.69 4.31 -1.62 6.62 -4 9 C-4.66 8.67 -5.32 8.34 -6 8 C-5.75 6.125 -5.75 6.125 -5 4 C-3 2.875 -3 2.875 -1 2 C-0.67 1.34 -0.34 0.68 0 0 Z " fill="#D9DCDB" transform="translate(968,480)"/>
<path d="M0 0 C0.66 0.66 1.32 1.32 2 2 C-1.465 4.97 -1.465 4.97 -5 8 C-5.33 6.68 -5.66 5.36 -6 4 C-5.34 3.67 -4.68 3.34 -4 3 C-4 2.34 -4 1.68 -4 1 C-2.125 0.375 -2.125 0.375 0 0 Z " fill="#E5E9E8" transform="translate(1009,438)"/>
<path d="M0 0 C1.65 0.33 3.3 0.66 5 1 C3.875 3 3.875 3 2 5 C-1.1875 5.25 -1.1875 5.25 -4 5 C-2.68 3.35 -1.36 1.7 0 0 Z " fill="#F0F0E8" transform="translate(1572,1763)"/>
<path d="M0 0 C2.64465038 3.1254959 3.84414715 6.08788267 5 10 C4.01 10 3.02 10 2 10 C1.71125 9.21625 1.4225 8.4325 1.125 7.625 C0.15087746 4.90328368 0.15087746 4.90328368 -2 3 C-1.34 2.01 -0.68 1.02 0 0 Z " fill="#1A1D1F" transform="translate(1557,1566)"/>
<path d="M0 0 C2.475 0.495 2.475 0.495 5 1 C5 1.66 5 2.32 5 3 C5.66 3 6.32 3 7 3 C6.625 4.9375 6.625 4.9375 6 7 C5.01 7.495 5.01 7.495 4 8 C2.68 5.36 1.36 2.72 0 0 Z " fill="#1D1B1C" transform="translate(1345,1485)"/>
<path d="M0 0 C0 0.66 0 1.32 0 2 C0.66 2.33 1.32 2.66 2 3 C-2.8333472 3.08333357 -7.23692563 2.95261487 -12 2 C-12 1.67 -12 1.34 -12 1 C-7.93631321 0.22596442 -4.13574827 -0.0984702 0 0 Z " fill="#313634" transform="translate(427,1465)"/>
<path d="M0 0 C1.98 0 3.96 0 6 0 C5.74438677 2.3431213 5.40729228 4.67843403 5 7 C4.01 7.495 4.01 7.495 3 8 C0 2.25 0 2.25 0 0 Z " fill="#E5E6E4" transform="translate(1409,1221)"/>
<path d="M0 0 C2.33944736 0.28730055 4.6739143 0.61936779 7 1 C7.33 2.32 7.66 3.64 8 5 C4.17902761 4.46930939 1.93828597 3.50298434 -1 1 C-0.67 0.67 -0.34 0.34 0 0 Z " fill="#DFE0DC" transform="translate(1250,1476)"/>
<path d="M0 0 C4.08072342 0.55144911 4.91330796 0.91330796 8 4 C3.05 3.67 -1.9 3.34 -7 3 C-7 2.67 -7 2.34 -7 2 C-4.69 2 -2.38 2 0 2 C0 1.34 0 0.68 0 0 Z " fill="#1E201D" transform="translate(487,1472)"/>
<path d="M0 0 C0.99 0.495 0.99 0.495 2 1 C2.33 1.99 2.66 2.98 3 4 C3.33 2.68 3.66 1.36 4 0 C4.66 0 5.32 0 6 0 C6.36923077 4.55384615 6.36923077 4.55384615 4.5 6.8125 C4.005 7.204375 3.51 7.59625 3 8 C0 3.375 0 3.375 0 0 Z " fill="#1E191C" transform="translate(1281,1372)"/>
<path d="M0 0 C1.65 1.65 3.3 3.3 5 5 C3.35 5.66 1.7 6.32 0 7 C0 6.01 0 5.02 0 4 C-0.99 3.67 -1.98 3.34 -3 3 C-2.34 3 -1.68 3 -1 3 C-0.67 2.01 -0.34 1.02 0 0 Z " fill="#F2EFF0" transform="translate(501,1029)"/>
<path d="M0 0 C1.65 0.33 3.3 0.66 5 1 C3.68 2.32 2.36 3.64 1 5 C1 4.34 1 3.68 1 3 C0.34 3 -0.32 3 -1 3 C-0.67 2.01 -0.34 1.02 0 0 Z M-4 3 C-3.01 3.33 -2.02 3.66 -1 4 C-1.99 4.66 -2.98 5.32 -4 6 C-4 5.01 -4 4.02 -4 3 Z " fill="#E6E9E7" transform="translate(1100,341)"/>
<path d="M0 0 C0.33 0.66 0.66 1.32 1 2 C1.66 2.33 2.32 2.66 3 3 C0.69 4.98 -1.62 6.96 -4 9 C-4.33 8.34 -4.66 7.68 -5 7 C-4.34 6.01 -3.68 5.02 -3 4 C-2.34 4 -1.68 4 -1 4 C-0.67 2.68 -0.34 1.36 0 0 Z " fill="#EFF0F0" transform="translate(1172,267)"/>
<path d="M0 0 C3.3 0.66 6.6 1.32 10 2 C8.68 2.33 7.36 2.66 6 3 C5.67 3.66 5.34 4.32 5 5 C2.03 4.505 2.03 4.505 -1 4 C-0.67 2.68 -0.34 1.36 0 0 Z " fill="#EFF0EF" transform="translate(1259,1478)"/>
<path d="M0 0 C1.36270886 0.95958446 2.70069869 1.95616386 4 3 C2.41705218 3.05437607 0.83355744 3.09296271 -0.75 3.125 C-1.63171875 3.14820313 -2.5134375 3.17140625 -3.421875 3.1953125 C-6.1135858 2.99139502 -7.69904974 2.36551721 -10 1 C-6.59994504 0.22284458 -3.48499441 -0.35743532 0 0 Z " fill="#2A2427" transform="translate(160,1445)"/>
<path d="M0 0 C0.94875 0.04125 1.8975 0.0825 2.875 0.125 C2.875 1.775 2.875 3.425 2.875 5.125 C0.235 4.135 -2.405 3.145 -5.125 2.125 C-3.125 0.125 -3.125 0.125 0 0 Z " fill="#DFDEDA" transform="translate(1158.125,1434.875)"/>
<path d="M0 0 C1.33333333 0.66666667 2.66666667 1.33333333 4 2 C4.125 4.875 4.125 4.875 4 8 C3.34 8.66 2.68 9.32 2 10 C1.01 7.03 0.02 4.06 -1 1 C-0.67 0.67 -0.34 0.34 0 0 Z " fill="#E4E7E4" transform="translate(1469,1367)"/>
<path d="M0 0 C2.475 0.99 2.475 0.99 5 2 C3.35 3.65 1.7 5.3 0 7 C-1.125 2.25 -1.125 2.25 0 0 Z " fill="#E8E8E3" transform="translate(898,1299)"/>
<path d="M0 0 C1.32 0.33 2.64 0.66 4 1 C2.70700306 3.88437779 1.34058637 5.87219421 -1 8 C-1.99 7.67 -2.98 7.34 -4 7 C-3.34 7 -2.68 7 -2 7 C-1.34 4.69 -0.68 2.38 0 0 Z " fill="#F8F6F4" transform="translate(314,1189)"/>
<path d="M0 0 C1.35432675 1.31200404 2.68733482 2.64631404 4 4 C4 4.33 4 4.66 4 5 C1.03 4.67 -1.94 4.34 -5 4 C-4.01 3.67 -3.02 3.34 -2 3 C-2 2.34 -2 1.68 -2 1 C-1.34 0.67 -0.68 0.34 0 0 Z " fill="#D8D8D7" transform="translate(658,985)"/>
<path d="M0 0 C0.66 0.66 1.32 1.32 2 2 C1.7578125 3.9453125 1.7578125 3.9453125 1.125 6.125 C0.92132812 6.84945312 0.71765625 7.57390625 0.5078125 8.3203125 C0.34023437 8.87460937 0.17265625 9.42890625 0 10 C-2.39456443 7.60543557 -2.75546876 6.34192692 -3 3 C-1.5625 1.1875 -1.5625 1.1875 0 0 Z " fill="#0F0F10" transform="translate(1045,859)"/>
<path d="M0 0 C2.97 0.495 2.97 0.495 6 1 C4.35 3.64 2.7 6.28 1 9 C0.34 8.34 -0.32 7.68 -1 7 C-0.649375 6.401875 -0.29875 5.80375 0.0625 5.1875 C1.33304698 2.89186786 1.33304698 2.89186786 0 0 Z " fill="#EAEEE7" transform="translate(476,695)"/>
<path d="M0 0 C0.99 0.33 1.98 0.66 3 1 C2.01 3.97 1.02 6.94 0 10 C-0.33 10 -0.66 10 -1 10 C-1.9765625 3.9453125 -1.9765625 3.9453125 -2 2 C-1.34 1.34 -0.68 0.68 0 0 Z " fill="#F6F4F7" transform="translate(1224,549)"/>
<path d="M0 0 C1.32 0.33 2.64 0.66 4 1 C3.67 2.65 3.34 4.3 3 6 C1.02 5.34 -0.96 4.68 -3 4 C-2.67 3.34 -2.34 2.68 -2 2 C-1.34 2 -0.68 2 0 2 C0 1.34 0 0.68 0 0 Z " fill="#121312" transform="translate(1632,1783)"/>
<path d="M0 0 C1.65 0 3.3 0 5 0 C4.67 1.65 4.34 3.3 4 5 C2.35 4.67 0.7 4.34 -1 4 C-0.67 2.68 -0.34 1.36 0 0 Z " fill="#161517" transform="translate(1354,1676)"/>
<path d="M0 0 C2.31 0.66 4.62 1.32 7 2 C6.01 2.495 6.01 2.495 5 3 C5 3.66 5 4.32 5 5 C2.69 4.67 0.38 4.34 -2 4 C-2 3.34 -2 2.68 -2 2 C-1.34 2 -0.68 2 0 2 C0 1.34 0 0.68 0 0 Z " fill="#EDEBE7" transform="translate(1277,1654)"/>
<path d="M0 0 C4 4.75 4 4.75 4 7 C-1.75 5.25 -1.75 5.25 -4 3 C-2.68 2.67 -1.36 2.34 0 2 C0 1.34 0 0.68 0 0 Z " fill="#DBD6D8" transform="translate(1370,1527)"/>
<path d="M0 0 C1.32 0.33 2.64 0.66 4 1 C2.02 3.31 0.04 5.62 -2 8 C-2.66 7.34 -3.32 6.68 -4 6 C-3.34 6 -2.68 6 -2 6 C-1.855625 5.195625 -1.71125 4.39125 -1.5625 3.5625 C-1 1 -1 1 0 0 Z " fill="#1D1924" transform="translate(1046,1343)"/>
<path d="M0 0 C0.99 0.33 1.98 0.66 3 1 C1.35 2.98 -0.3 4.96 -2 7 C-2.99 6.67 -3.98 6.34 -5 6 C-4.34 4.68 -3.68 3.36 -3 2 C-2.01 2 -1.02 2 0 2 C0 1.34 0 0.68 0 0 Z " fill="#E5E5E2" transform="translate(876,1324)"/>
<path d="M0 0 C8.57142857 0.85714286 8.57142857 0.85714286 12 3 C8.40472245 4.24451915 5.68706033 3.70603283 2 3 C1.01 3 0.02 3 -1 3 C-0.67 2.01 -0.34 1.02 0 0 Z " fill="#191514" transform="translate(364,1186)"/>
<path d="M0 0 C2.475 0.99 2.475 0.99 5 2 C4.34 4.64 3.68 7.28 3 10 C1.11608215 6.73454239 0.50712033 3.71888239 0 0 Z " fill="#DFDDDF" transform="translate(1268,765)"/>
<path d="M0 0 C0.66 0.66 1.32 1.32 2 2 C1.625 5.125 1.625 5.125 1 8 C0.01 8 -0.98 8 -2 8 C-2.33 6.35 -2.66 4.7 -3 3 C-2.34 3 -1.68 3 -1 3 C-0.67 2.01 -0.34 1.02 0 0 Z " fill="#E8E7E8" transform="translate(1252,681)"/>
<path d="M0 0 C2.475 0.99 2.475 0.99 5 2 C5 3.65 5 5.3 5 7 C2.69 5.35 0.38 3.7 -2 2 C-1.34 1.34 -0.68 0.68 0 0 Z " fill="#DEE3DC" transform="translate(854,663)"/>
<path d="M0 0 C2 0.3125 2 0.3125 4 1 C4.33 1.66 4.66 2.32 5 3 C3.35 4.32 1.7 5.64 0 7 C-0.38133299 5.0085944 -0.71325582 3.00720923 -1 1 C-0.67 0.67 -0.34 0.34 0 0 Z " fill="#EAECEB" transform="translate(1034,408)"/>
<path d="M0 0 C0.66 0.99 1.32 1.98 2 3 C0.71034824 4.37562854 -0.62689293 5.70766393 -2 7 C-2.66 7 -3.32 7 -4 7 C-4 5.35 -4 3.7 -4 2 C-2.68 1.34 -1.36 0.68 0 0 Z " fill="#F1F3EE" transform="translate(1165,275)"/>
<path d="M0 0 C2.475 0.495 2.475 0.495 5 1 C4.67 3.31 4.34 5.62 4 8 C2.22293791 5.33440687 1.12451727 2.9719385 0 0 Z " fill="#EEEFEE" transform="translate(1525,1497)"/>
<path d="M0 0 C0.66 0.33 1.32 0.66 2 1 C0.02 3.31 -1.96 5.62 -4 8 C-4.66 7.34 -5.32 6.68 -6 6 C-4 4 -2 2 0 0 Z " fill="#211B26" transform="translate(1078,1312)"/>
<path d="M0 0 C2.31 0.33 4.62 0.66 7 1 C6.67 2.32 6.34 3.64 6 5 C3.69 4.34 1.38 3.68 -1 3 C-0.67 2.01 -0.34 1.02 0 0 Z " fill="#E5E2E1" transform="translate(650,1256)"/>
<path d="M0 0 C2.64 0 5.28 0 8 0 C6.35 1.65 4.7 3.3 3 5 C1.5 3.625 1.5 3.625 0 2 C0 1.34 0 0.68 0 0 Z " fill="#E0E2DD" transform="translate(956,1239)"/>
<path d="M0 0 C1.73662334 3.22515763 2.8905928 6.51329166 4 10 C3.01 10.33 2.02 10.66 1 11 C-1.03684712 6.92630576 -1.0257259 4.41062136 0 0 Z " fill="#E0DEE2" transform="translate(1037,851)"/>
<path d="M0 0 C0 0.66 0 1.32 0 2 C-5.41538462 3.23076923 -5.41538462 3.23076923 -8.375 2.0625 C-8.91125 1.711875 -9.4475 1.36125 -10 1 C-6.52674819 -0.1577506 -3.63932552 -0.06866652 0 0 Z " fill="#212323" transform="translate(766,1517)"/>
<path d="M0 0 C5.75 1.75 5.75 1.75 8 4 C4.23375329 5.25541557 2.62811066 4.37061958 -1 3 C-0.67 2.01 -0.34 1.02 0 0 Z " fill="#11120E" transform="translate(1261,1483)"/>
<path d="M0 0 C1.32 0.33 2.64 0.66 4 1 C4 1.99 4 2.98 4 4 C4.99 3.67 5.98 3.34 7 3 C7 3.99 7 4.98 7 6 C4.03 5.01 1.06 4.02 -2 3 C-1.34 2.67 -0.68 2.34 0 2 C0 1.34 0 0.68 0 0 Z " fill="#D7D7D7" transform="translate(1221,1462)"/>
<path d="M0 0 C1 3 1 3 0.0625 5.1875 C-0.4634375 6.0846875 -0.4634375 6.0846875 -1 7 C-2.32 7 -3.64 7 -5 7 C-3.35 4.69 -1.7 2.38 0 0 Z " fill="#E0DEE5" transform="translate(1019,1374)"/>
<path d="M0 0 C0.33 0 0.66 0 1 0 C1.3125 2.3125 1.3125 2.3125 1 5 C-1.86103423 7.24243223 -3.34076304 8 -7 8 C-5.85760183 6.66372225 -4.71098945 5.33104612 -3.5625 4 C-2.92441406 3.2575 -2.28632813 2.515 -1.62890625 1.75 C-1.09136719 1.1725 -0.55382812 0.595 0 0 Z " fill="#222421" transform="translate(250,1261)"/>
<path d="M0 0 C0.66 0.33 1.32 0.66 2 1 C2 1.99 2 2.98 2 4 C2.66 4 3.32 4 4 4 C3.67 4.99 3.34 5.98 3 7 C1.68 6.34 0.36 5.68 -1 5 C-1 2 -1 2 0 0 Z " fill="#D9DCD8" transform="translate(589,951)"/>
<path d="M0 0 C0.598125 0.20625 1.19625 0.4125 1.8125 0.625 C-1.1575 3.1 -1.1575 3.1 -4.1875 5.625 C-4.5175 4.305 -4.8475 2.985 -5.1875 1.625 C-2.1875 -0.375 -2.1875 -0.375 0 0 Z " fill="#E1E5E4" transform="translate(957.1875,493.375)"/>
<path d="M0 0 C2.64 0 5.28 0 8 0 C8.33 1.32 8.66 2.64 9 4 C6.03 3.01 3.06 2.02 0 1 C0 0.67 0 0.34 0 0 Z " fill="#151617" transform="translate(1362,1682)"/>
<path d="M0 0 C1.670625 0.061875 1.670625 0.061875 3.375 0.125 C3.375 1.115 3.375 2.105 3.375 3.125 C0.405 2.795 -2.565 2.465 -5.625 2.125 C-3.625 0.125 -3.625 0.125 0 0 Z " fill="#211F21" transform="translate(911.625,1548.875)"/>
<path d="M0 0 C0.66 0 1.32 0 2 0 C2 0.66 2 1.32 2 2 C3.32 1.67 4.64 1.34 6 1 C5.34 2.32 4.68 3.64 4 5 C2.02 4.34 0.04 3.68 -2 3 C-1.34 2.01 -0.68 1.02 0 0 Z " fill="#ECEEEA" transform="translate(1325,1508)"/>
<path d="M0 0 C2.0625 1.6875 2.0625 1.6875 4 4 C3.75 6.75 3.75 6.75 3 9 C0.53721199 6.53721199 0.00228745 4.29323018 -1 1 C-0.67 0.67 -0.34 0.34 0 0 Z " fill="#E8E9E9" transform="translate(1501,1441)"/>
<path d="M0 0 C1.32 0.66 2.64 1.32 4 2 C-0.75 6 -0.75 6 -3 6 C-2.67 4.68 -2.34 3.36 -2 2 C-1.34 2 -0.68 2 0 2 C0 1.34 0 0.68 0 0 Z " fill="#0D0D13" transform="translate(1033,1355)"/>
<path d="M0 0 C2.64 0 5.28 0 8 0 C7.01 1.485 7.01 1.485 6 3 C4.68 3 3.36 3 2 3 C1.67 3.66 1.34 4.32 1 5 C0.67 3.35 0.34 1.7 0 0 Z " fill="#DCD8E1" transform="translate(697,1104)"/>
<path d="M0 0 C1.32 0.33 2.64 0.66 4 1 C3.67 2.32 3.34 3.64 3 5 C4.32 5 5.64 5 7 5 C6.67 5.66 6.34 6.32 6 7 C5.01 7.33 4.02 7.66 3 8 C2.01 5.36 1.02 2.72 0 0 Z " fill="#1A1819" transform="translate(1103,1013)"/>
<path d="M0 0 C0.763125 0.20625 1.52625 0.4125 2.3125 0.625 C1.9825 1.615 1.6525 2.605 1.3125 3.625 C-0.9975 2.965 -3.3075 2.305 -5.6875 1.625 C-2.6875 -0.375 -2.6875 -0.375 0 0 Z " fill="#1C1C1B" transform="translate(1626.6875,1782.375)"/>
<path d="M0 0 C2.97 0.495 2.97 0.495 6 1 C5.67 1.99 5.34 2.98 5 4 C3.35 4 1.7 4 0 4 C0 2.68 0 1.36 0 0 Z " fill="#EEEEEC" transform="translate(1238,1642)"/>
<path d="M0 0 C2.64 0.99 5.28 1.98 8 3 C7.67 3.66 7.34 4.32 7 5 C5.68 5 4.36 5 3 5 C3 4.34 3 3.68 3 3 C2.01 3 1.02 3 0 3 C0 2.01 0 1.02 0 0 Z " fill="#181614" transform="translate(1202,1457)"/>
<path d="M0 0 C0.99 1.32 1.98 2.64 3 4 C2.34 5.32 1.68 6.64 1 8 C0.34 7.34 -0.32 6.68 -1 6 C-0.625 2.875 -0.625 2.875 0 0 Z " fill="#1C1E1D" transform="translate(1484,1407)"/>
<path d="M0 0 C0.75 1.75 0.75 1.75 1 4 C-0.9375 6.25 -0.9375 6.25 -3 8 C-3.33 6.68 -3.66 5.36 -4 4 C-3.34 4 -2.68 4 -2 4 C-2 3.34 -2 2.68 -2 2 C-1.34 2 -0.68 2 0 2 C0 1.34 0 0.68 0 0 Z " fill="#0B0B10" transform="translate(1043,1345)"/>
<path d="M0 0 C-1 3 -1 3 -3.0625 4.1875 C-3.701875 4.455625 -4.34125 4.72375 -5 5 C-5.66 3.68 -6.32 2.36 -7 1 C-4 0 -4 0 0 0 Z " fill="#10140F" transform="translate(1240,1284)"/>
<path d="M0 0 C2 2 2 2 2.4375 4 C2.87458708 6.38640738 2.87458708 6.38640738 6 8 C4.68 8.33 3.36 8.66 2 9 C0.93347808 6.69631264 -0.06421005 4.35981813 -1 2 C-0.67 1.34 -0.34 0.68 0 0 Z " fill="#131515" transform="translate(1209,1234)"/>
<path d="M0 0 C4.95 0.99 4.95 0.99 10 2 C9.67 2.99 9.34 3.98 9 5 C5.85262818 4.30058404 2.97411124 3.23921302 0 2 C0 1.34 0 0.68 0 0 Z " fill="#211C1D" transform="translate(561,1234)"/>
<path d="M0 0 C1.32 0.66 2.64 1.32 4 2 C1.03 4.475 1.03 4.475 -2 7 C-1.125 1.125 -1.125 1.125 0 0 Z " fill="#EEEDE9" transform="translate(1038,1158)"/>
<path d="M0 0 C1.32 0.66 2.64 1.32 4 2 C0.04 3.98 0.04 3.98 -4 6 C-4 5.34 -4 4.68 -4 4 C-3.34 4 -2.68 4 -2 4 C-1.34 2.68 -0.68 1.36 0 0 Z " fill="#E6EDDE" transform="translate(556,628)"/>
<path d="M0 0 C0.66 1.32 1.32 2.64 2 4 C0.02 4.66 -1.96 5.32 -4 6 C-3.6875 4.125 -3.6875 4.125 -3 2 C-2.01 1.34 -1.02 0.68 0 0 Z " fill="#F0F3EC" transform="translate(574,618)"/>
<path d="M0 0 C1.32 0.33 2.64 0.66 4 1 C0.535 3.97 0.535 3.97 -3 7 C-3 6.01 -3 5.02 -3 4 C-2.34 4 -1.68 4 -1 4 C-0.67 2.68 -0.34 1.36 0 0 Z " fill="#D1D9D6" transform="translate(991,456)"/>
<path d="M0 0 C2.475 0.99 2.475 0.99 5 2 C4.67 2.99 4.34 3.98 4 5 C2.02 4.34 0.04 3.68 -2 3 C-1.34 2.67 -0.68 2.34 0 2 C0 1.34 0 0.68 0 0 Z " fill="#191B19" transform="translate(1617,1778)"/>
<path d="M0 0 C1.32 0 2.64 0 4 0 C4 0.99 4 1.98 4 3 C4.66 3 5.32 3 6 3 C6 3.66 6 4.32 6 5 C4.68 5 3.36 5 2 5 C1.34 3.35 0.68 1.7 0 0 Z " fill="#EDEDE8" transform="translate(1539,1527)"/>
<path d="M0 0 C0 0.99 0 1.98 0 3 C-2.97 2.67 -5.94 2.34 -9 2 C-5.5647952 -0.29013653 -4.014669 -0.17842973 0 0 Z " fill="#2A292A" transform="translate(683,1502)"/>
<path d="M0 0 C0.66 0.66 1.32 1.32 2 2 C1.01 3.485 1.01 3.485 0 5 C-1.65 4.67 -3.3 4.34 -5 4 C-4.34 3.67 -3.68 3.34 -3 3 C-3 2.34 -3 1.68 -3 1 C-2.01 0.67 -1.02 0.34 0 0 Z " fill="#E6E6E2" transform="translate(1145,1428)"/>
<path d="M0 0 C2.31 0.66 4.62 1.32 7 2 C6.67 2.66 6.34 3.32 6 4 C3.36 3.34 0.72 2.68 -2 2 C-1.34 1.34 -0.68 0.68 0 0 Z " fill="#E0DFDB" transform="translate(847,1320)"/>
<path d="M0 0 C1.65 0.33 3.3 0.66 5 1 C5 1.99 5 2.98 5 4 C3.125 4.625 3.125 4.625 1 5 C0.34 4.34 -0.32 3.68 -1 3 C-0.67 2.01 -0.34 1.02 0 0 Z " fill="#E3E0DF" transform="translate(480,1209)"/>
<path d="M0 0 C1.32 0.33 2.64 0.66 4 1 C4 2.65 4 4.3 4 6 C3.01 6.495 3.01 6.495 2 7 C1.34 4.69 0.68 2.38 0 0 Z " fill="#E8E7EA" transform="translate(1376,1129)"/>
<path d="M0 0 C0.66 0 1.32 0 2 0 C2.66 1.32 3.32 2.64 4 4 C2.68 4.99 1.36 5.98 0 7 C-1.125 2.25 -1.125 2.25 0 0 Z " fill="#1B1C1B" transform="translate(855,1029)"/>
<path d="M0 0 C0.33 1.32 0.66 2.64 1 4 C0.34 4 -0.32 4 -1 4 C-1 4.66 -1 5.32 -1 6 C-1.99 5.67 -2.98 5.34 -4 5 C-2.25 1.125 -2.25 1.125 0 0 Z " fill="#F2F3F0" transform="translate(1335,989)"/>
<path d="M0 0 C0.99 0.33 1.98 0.66 3 1 C2.67 2.65 2.34 4.3 2 6 C0.68 5.67 -0.64 5.34 -2 5 C-1.125 1.125 -1.125 1.125 0 0 Z " fill="#F0EFEE" transform="translate(933,896)"/>
<path d="M0 0 C1.32 0.33 2.64 0.66 4 1 C2.35 2.65 0.7 4.3 -1 6 C-1.66 5.34 -2.32 4.68 -3 4 C-2.34 4 -1.68 4 -1 4 C-0.67 2.68 -0.34 1.36 0 0 Z " fill="#E3E7E7" transform="translate(938,510)"/>
<path d="M0 0 C1.98 0.495 1.98 0.495 4 1 C3.34 2.65 2.68 4.3 2 6 C1.01 4.68 0.02 3.36 -1 2 C-0.67 1.34 -0.34 0.68 0 0 Z " fill="#E7E8E6" transform="translate(1664,1768)"/>
<path d="M0 0 C0.928125 0.20625 1.85625 0.4125 2.8125 0.625 C2.8125 1.285 2.8125 1.945 2.8125 2.625 C-0.95374671 3.88041557 -2.55938934 2.99561958 -6.1875 1.625 C-3.1875 -0.375 -3.1875 -0.375 0 0 Z " fill="#1D1A1D" transform="translate(1525.1875,1740.375)"/>
<path d="M0 0 C2.475 0.495 2.475 0.495 5 1 C4.67 1.99 4.34 2.98 4 4 C2.68 4 1.36 4 0 4 C0 2.68 0 1.36 0 0 Z " fill="#F4F4EF" transform="translate(1409,1700)"/>
<path d="M0 0 C1.65 0 3.3 0 5 0 C4.67 1.65 4.34 3.3 4 5 C3.34 5 2.68 5 2 5 C1.34 3.35 0.68 1.7 0 0 Z " fill="#F2F3ED" transform="translate(1600,1650)"/>
<path d="M0 0 C1.5625 1.8125 1.5625 1.8125 3 4 C2.67 4.99 2.34 5.98 2 7 C1.34 7 0.68 7 0 7 C-0.38133299 5.0085944 -0.71325582 3.00720923 -1 1 C-0.67 0.67 -0.34 0.34 0 0 Z " fill="#1D1C21" transform="translate(1528,1505)"/>
<path d="M0 0 C2.31 0.66 4.62 1.32 7 2 C4 4 4 4 0 4 C0 2.68 0 1.36 0 0 Z " fill="#171817" transform="translate(1037,1390)"/>
<path d="M0 0 C2.0625 0.4375 2.0625 0.4375 4 1 C1.03 3.475 1.03 3.475 -2 6 C-1.125 1.125 -1.125 1.125 0 0 Z " fill="#D7D9D5" transform="translate(160,1351)"/>
<path d="M0 0 C1.9451 2.91765 2.45276317 4.62537285 3 8 C1.68 7.34 0.36 6.68 -1 6 C-0.67 4.02 -0.34 2.04 0 0 Z " fill="#222425" transform="translate(1380,1141)"/>
<path d="M0 0 C1.32 0.33 2.64 0.66 4 1 C1.03 3.475 1.03 3.475 -2 6 C-2 4.68 -2 3.36 -2 2 C-1.34 2 -0.68 2 0 2 C0 1.34 0 0.68 0 0 Z " fill="#D8D7D1" transform="translate(1100,1096)"/>
<path d="M0 0 C1.65 0.33 3.3 0.66 5 1 C4.01 2.485 4.01 2.485 3 4 C0.375 4.1875 0.375 4.1875 -2 4 C-1.34 3.67 -0.68 3.34 0 3 C0 2.01 0 1.02 0 0 Z " fill="#16171B" transform="translate(627,1095)"/>
<path d="M0 0 C0.99 0.66 1.98 1.32 3 2 C0.03 4.475 0.03 4.475 -3 7 C-2.38722388 4.03824877 -1.74627478 2.61941217 0 0 Z " fill="#C8D1CE" transform="translate(1160,281)"/>
</svg>
